<svg width="229" height="215" viewBox="0 0 229 215" fill="none" xmlns="http://www.w3.org/2000/svg">
<path d="M152.884 38.9526C169.36 44.2162 191.432 45.9187 207.753 57.3718C224.074 68.8272 234.488 90.0309 225.939 104.271C217.547 118.511 189.878 125.941 174.179 143.122C158.48 160.303 154.594 187.08 140.449 201.32C126.303 215.716 101.899 217.573 78.5843 212.311C55.1131 207.202 32.8843 194.974 25.2688 175.781C17.8077 156.588 25.2688 130.43 20.138 105.201C15.1639 79.9701 -2.24531 55.6693 0.241723 36.322C2.88551 17.1286 25.4232 2.88858 47.8065 0.411864C70.3465 -2.06486 92.573 7.06776 109.205 16.0465C125.681 25.0228 136.408 33.8453 152.884 38.9526Z" fill="#E8CA90"/>
</svg>
