<svg width="195" height="222" viewBox="0 0 195 222" fill="none" xmlns="http://www.w3.org/2000/svg">
<path d="M47.9769 69.6306C54.7613 53.9227 59.2005 32.2501 71.3444 17.4232C83.4904 2.59649 103.318 -5.22948 114.55 4.91706C125.803 14.9083 128.552 43.2008 141.382 60.7786C154.212 78.3564 176.967 85.3567 187.449 101.049C198.066 116.76 196.408 141.163 188.709 163.648C181.12 186.306 167.511 206.896 149.806 212.186C132.122 217.322 110.385 206.852 87.7662 208.97C65.1668 210.931 41.7091 225.325 25.2247 220.585C8.89514 215.708 -0.461328 191.699 0.386796 169.227C1.25594 146.599 12.1745 125.647 22.2093 110.221C32.2211 94.9497 41.3283 85.3569 47.9769 69.6306Z" fill="#E8CA90"/>
</svg>
