<svg width="265" height="339" viewBox="0 0 265 339" fill="none" xmlns="http://www.w3.org/2000/svg">
<mask id="mask0_830_307" style="mask-type:alpha" maskUnits="userSpaceOnUse" x="0" y="0" width="265" height="339">
<rect width="265" height="339" fill="#D9D9D9"/>
</mask>
<g mask="url(#mask0_830_307)">
<mask id="mask1_830_307" style="mask-type:luminance" maskUnits="userSpaceOnUse" x="14" y="4" width="502" height="436">
<path d="M14 4H515.059V440H14V4Z" fill="white"/>
</mask>
<g mask="url(#mask1_830_307)">
<path d="M51.9959 300.99C53.1032 301.094 54.2106 301.094 55.1982 301.094C71.4548 301.094 80.3254 288.771 82.7854 284.802C83.6473 283.411 83.773 282.016 83.4019 280.625C82.7854 278.693 80.8162 276.979 77.7396 275.589C70.5929 272.37 64.4338 270.979 58.2747 271.193C57.0477 271.297 55.689 271.193 54.3363 271.193C53.7198 271.193 53.1032 271.193 52.4867 271.193C52.367 271.193 52.367 271.193 52.2413 271.193C52.1156 271.193 51.9959 271.083 51.8702 271.193C45.2203 272.693 40.9108 275.589 38.5704 279.979C35.9847 284.911 35.859 290.057 38.4447 293.911C40.9108 297.984 45.7111 300.453 51.9959 300.99ZM39.6777 280.625C41.8924 276.443 45.8368 273.87 52.2413 272.37C52.367 272.37 52.367 272.37 52.4867 272.37C53.1032 272.37 53.7198 272.37 54.3363 272.37C55.689 272.37 57.0477 272.37 58.2747 272.37C64.1884 272.156 70.2218 273.443 77.1231 276.656C79.8346 277.943 81.6781 279.443 82.1749 281.052C82.54 282.125 82.4203 283.302 81.6781 284.375C79.218 288.448 69.6113 301.63 52.1156 299.917C46.2079 299.38 41.7727 297.13 39.552 293.594C37.092 289.948 37.2177 285.234 39.6777 280.625ZM506.494 256.828C508.344 257.26 510.067 257.688 511.917 258.115C511.791 258.438 511.791 258.865 511.671 259.188C509.822 258.76 507.972 258.333 506.129 257.901C501.323 256.724 496.396 255.542 491.47 254.688C483.091 253.188 474.346 251.255 467.205 245.896C463.386 243.005 461.417 239.896 461.417 236.786C461.417 234.109 463.141 231.536 466.217 229.286C468.684 227.464 471.395 225.641 474.346 224.568C478.781 222.964 483.342 221.245 487.771 219.531C496.516 216.104 505.512 212.672 514.874 210.208C514.874 210.531 514.874 210.958 514.874 211.281C505.632 213.635 496.768 217.068 488.268 220.495C483.959 222.214 479.398 223.927 474.843 225.641C472.005 226.604 469.42 228.427 466.96 230.141C464.123 232.177 462.644 234.432 462.524 236.786C462.524 240.219 465.356 243.219 467.822 245.042C474.717 250.292 483.216 252.115 491.47 253.615C496.768 254.474 501.694 255.651 506.494 256.828ZM126.881 256.615C127.497 256.615 128.114 256.724 128.73 256.724C129.472 256.724 130.209 256.615 130.945 256.51C135.015 255.542 139.325 254.26 143.88 252.651C154.594 249.005 162.602 246.115 170.114 243.328C172.335 242.469 174.795 241.073 176.89 239.359C178.248 238.182 178.985 236.682 178.614 235.286C178.248 233.896 177.135 232.927 175.411 232.396C171.964 231.427 168.271 230.896 164.817 230.359C163.344 230.141 161.74 229.927 160.262 229.609C160.142 229.609 160.017 229.609 159.891 229.609C159.771 229.609 159.645 229.5 159.526 229.609C157.922 229.927 156.323 230.25 154.845 230.573C151.391 231.214 147.698 231.964 144.376 233.146C135.877 236.146 129.592 242.042 124.911 251.151C124.421 252.115 124.421 253.401 124.421 254.474C124.421 255.01 124.421 255.438 124.421 255.974C124.421 256.078 124.421 256.297 124.54 256.401C124.666 256.51 124.792 256.615 125.037 256.615C125.654 256.51 126.27 256.51 126.881 256.615ZM125.773 254.474C125.773 253.401 125.773 252.438 126.144 251.578C130.699 242.682 136.739 237 144.987 234.109C148.315 232.927 151.762 232.286 155.21 231.536C156.814 231.214 158.412 230.896 160.017 230.573C160.017 230.573 160.017 230.573 160.142 230.573H160.262C161.74 230.786 163.344 231.109 164.817 231.323C168.271 231.859 171.964 232.5 175.292 233.359C176.519 233.682 177.38 234.432 177.632 235.396C177.877 236.469 177.38 237.536 176.273 238.505C174.178 240.219 171.964 241.505 169.749 242.255C162.231 245.042 154.103 247.932 143.508 251.578C138.953 253.188 134.644 254.365 130.699 255.438C129.592 255.76 128.359 255.651 127.006 255.542C126.635 255.542 126.144 255.542 125.773 255.438C125.773 255.115 125.773 254.792 125.773 254.474ZM48.9134 313.958C44.9749 313.958 40.9108 313.635 36.8466 312.885C36.4755 312.026 35.9847 311.276 35.6136 310.526C54.0909 314.063 71.2094 310.526 87.8372 299.703C102.867 289.839 118.998 279.339 135.015 268.729C143.143 263.37 152.134 259.188 161.74 256.297C173.316 252.865 185.144 249.865 196.72 246.865C200.784 245.792 204.848 244.828 209.038 243.755C217.908 241.505 226.899 242.469 234.901 243.432C249.56 245.146 258.185 240.005 260.645 228.323C260.771 228 260.771 227.677 260.89 227.25C261.261 225.75 261.507 224.464 261.507 223.068C261.387 218.031 258.305 215.245 252.397 214.818C251.535 214.708 250.667 214.708 249.931 214.604L248.824 214.495C248.824 214.495 248.824 214.495 248.698 214.495C248.578 214.495 248.578 214.495 248.452 214.495C241.312 214.604 234.656 216.641 228.132 218.568C224.187 219.745 220.003 221.031 215.688 221.891C209.283 223.068 202.388 224.036 195.122 222.75C192.039 222.214 188.837 222.104 185.635 222C184.401 222 183.174 221.891 181.941 221.891C180.218 221.781 178.368 221.677 176.519 221.568C172.209 221.245 167.654 221.031 163.344 221.245C152.259 221.781 140.306 222.854 128.976 226.823C120.973 229.609 115.676 234.859 111.612 239.682C107.051 244.932 102.005 251.042 94.9839 255.542C84.0184 262.62 71.9516 262.724 61.6027 261.87C60.1243 261.76 58.5261 261.651 57.0477 261.651C51.2537 261.651 45.8368 262.62 40.7851 264.438C33.3989 267.229 29.0834 272.693 26.2522 277.193C25.1449 278.802 24.283 280.516 23.5408 282.229C23.1757 281.161 22.8046 279.979 22.5592 278.911C23.05 277.943 23.5408 277.089 24.1573 276.229C27.2398 271.516 31.9205 265.62 39.9231 262.62C46.573 260.151 53.9652 259.188 61.8481 259.833C71.7002 260.688 83.2822 260.583 93.6252 253.828C100.281 249.542 105.327 243.646 109.762 238.396C114.072 233.359 119.614 227.786 128.114 224.891C139.815 220.818 151.888 219.745 163.219 219.104C167.774 218.891 172.335 219.208 176.77 219.427C178.494 219.531 180.337 219.641 182.061 219.745C183.294 219.854 184.527 219.854 185.635 219.854C188.837 219.964 192.284 220.068 195.487 220.604C202.388 221.891 208.912 220.927 215.071 219.745C219.135 218.995 223.206 217.708 227.144 216.531C233.794 214.495 240.695 212.349 248.207 212.349C248.327 212.349 248.327 212.349 248.452 212.349C248.578 212.349 248.698 212.349 248.824 212.349L249.931 212.458C250.667 212.568 251.535 212.672 252.271 212.672C259.418 213.208 263.482 216.958 263.602 223.068C263.602 224.677 263.356 226.177 262.985 227.677C262.866 228 262.866 228.323 262.74 228.641C260.028 241.505 250.176 247.292 234.165 245.469C226.408 244.615 217.663 243.542 209.283 245.792C205.219 246.865 201.155 247.932 196.965 248.901C185.515 251.792 173.568 254.901 162.111 258.224C152.75 261.01 144.005 265.083 136.122 270.333C120.111 280.948 103.974 291.557 88.9445 301.307C76.5066 309.776 62.9554 313.958 48.9134 313.958ZM17.7528 259.401C17.5074 258.438 17.3817 257.578 17.262 256.615C21.2005 252.755 26.0068 249.219 32.4113 246.865C38.6901 244.505 45.4657 243.969 51.8702 243.432C53.8455 243.328 55.8147 243.109 57.6582 242.896C67.1453 241.932 77.4942 239.469 82.0492 229.177L82.6657 227.786C83.773 225.214 85.006 222.531 86.1134 219.854C88.5794 213.745 93.1344 206.885 106.931 207.099C109.271 207.208 111.612 207.313 113.952 207.422C117.029 207.635 120.231 207.849 123.433 207.745C139.325 207.422 155.462 206.995 171.102 206.672C176.153 206.563 181.199 206.458 186.251 206.245C194.876 206.026 203.25 204.422 211.133 201.313C220.123 197.88 227.635 195.203 234.782 192.74C252.271 186.948 264.093 178.911 272.101 167.552C275.92 162.083 281.337 155.333 289.836 150.938C295.75 147.828 302.28 147.188 309.918 148.901C317.675 150.615 322.481 155.438 327.282 160.156C327.898 160.797 328.634 161.443 329.251 162.083C331.346 164.016 333.315 166.156 335.29 168.089C338.612 171.516 342.06 175.052 345.759 178.271C356.718 187.594 369.282 192.094 383.079 191.557C385.174 191.453 387.388 191.344 389.483 191.13C391.333 191.021 393.176 190.917 395.026 190.807C410.301 190.057 425.57 191.557 439.863 193.167C448.854 194.24 458.335 194.776 467.325 192.307C478.907 189.203 485.186 183.63 486.909 175.375C487.771 170.979 488.023 166.479 488.388 162.083C488.514 160.047 488.639 158.12 488.885 156.193C489.621 148.474 491.961 142.365 496.151 137.542C496.522 138.292 496.887 139.042 497.258 139.901C493.811 144.188 491.961 149.547 491.345 156.406C491.225 158.333 491.099 160.37 490.854 162.297C490.608 166.802 490.237 171.411 489.375 175.911C487.526 185.021 480.631 191.13 468.193 194.563C458.706 197.13 448.854 196.594 439.612 195.526C425.57 193.917 410.421 192.526 395.271 193.167C393.428 193.276 391.578 193.38 389.729 193.49C387.634 193.594 385.419 193.807 383.204 193.917C368.666 194.453 355.485 189.734 344.035 179.984C340.216 176.771 336.769 173.125 333.315 169.693C331.346 167.766 329.377 165.62 327.407 163.693C326.791 163.052 326.049 162.406 325.432 161.766C320.752 157.156 316.322 152.76 309.301 151.26C302.4 149.651 296.367 150.297 291.069 153.083C283.067 157.26 277.77 163.802 274.196 169.052C265.942 180.839 253.624 189.094 235.643 195.094C228.497 197.453 220.985 200.135 212.114 203.563C203.866 206.672 195.122 208.495 186.251 208.708C181.199 208.813 176.153 208.922 171.102 209.135C155.462 209.563 139.325 209.995 123.433 210.208C120.231 210.313 116.909 210.099 113.707 209.885C111.486 209.781 109.146 209.563 106.805 209.563C106.56 209.563 106.314 209.563 105.943 209.563C96.8274 209.563 91.5303 212.995 88.328 220.818C87.2207 223.5 86.1134 226.177 84.8803 228.75L84.2638 230.141C79.3378 241.396 68.2526 243.969 58.0293 245.042C56.0601 245.255 54.0909 245.365 52.1156 245.578C45.8368 246.115 39.3066 246.542 33.3989 248.792C27.4852 251.042 22.4335 254.365 17.7528 259.401ZM15.9033 248.901C15.9033 248.469 15.7836 247.932 15.7836 247.505C17.0166 246.432 18.2436 245.365 19.6023 244.292C27.7306 237.969 37.9539 236.25 48.4226 234.859C60.7408 233.359 67.3907 228.964 70.1021 220.818C70.8383 218.677 71.3351 216.318 71.8259 214.172C71.9516 213.422 72.197 212.672 72.3167 212.031C74.7828 201.635 81.9235 196.38 93.0087 196.917C99.0481 197.24 104.345 197.88 109.146 198.849C120.847 201.313 133.537 203.563 146.836 203.026C154.965 202.703 163.093 202.49 172.7 202.276C180.583 202.063 190.932 201.422 200.538 197.99C210.762 194.344 220.865 190.167 230.717 186.094L236.631 183.734C248.081 179.125 257.814 171.729 266.313 161.12L266.433 160.906C271.856 154.156 277.524 147.297 285.898 142.578C292.422 139.042 298.833 137.219 304.986 137.328C312.994 137.432 320.141 140.005 325.432 144.615C327.282 146.224 329.131 147.828 330.975 149.547C336.027 153.938 341.198 158.443 346.376 162.833C361.896 176.125 380.864 182.771 402.538 182.875C408.08 182.875 413.623 183.198 419.046 183.63C422.248 183.948 425.324 184.271 428.407 184.698C436.906 185.771 445.651 186.844 454.516 185.984C466.96 184.911 475.088 179.021 477.548 169.693C478.661 165.62 479.398 161.333 480.014 157.26C480.385 155.224 480.756 153.188 481.121 151.151C482.845 142.578 486.544 135.719 492.207 130.469C492.332 130.786 492.578 131.219 492.823 131.542C487.526 136.578 483.959 143.224 482.354 151.26C481.983 153.297 481.618 155.333 481.247 157.37C480.505 161.547 479.769 165.729 478.661 169.911C476.076 179.771 467.576 185.88 454.642 187.057C445.651 187.917 436.781 186.844 428.281 185.771C425.205 185.344 422.002 185.021 418.92 184.698C413.503 184.161 408.08 183.948 402.538 183.948C380.493 183.844 361.399 176.984 345.514 163.583C340.336 159.193 335.165 154.688 330.113 150.297C328.269 148.688 326.42 147.078 324.57 145.365C319.399 140.865 312.623 138.505 304.986 138.401C299.078 138.292 292.793 140.005 286.634 143.438C278.386 147.938 272.843 154.797 267.546 161.443L267.421 161.656C258.676 172.375 248.824 179.875 237.242 184.594L231.334 186.948C221.476 191.021 211.253 195.094 201.029 198.849C191.303 202.385 180.834 203.026 172.826 203.24C163.219 203.453 155.09 203.672 146.962 203.99C133.537 204.526 120.728 202.276 108.9 199.813C104.22 198.849 99.0481 198.203 93.0087 197.88C79.9543 197.24 75.2736 205.276 73.5498 212.135C73.4301 212.885 73.1787 213.531 73.059 214.281C72.5622 216.531 72.0713 218.781 71.3351 221.031C68.498 229.609 61.477 234.214 48.5483 235.823C38.1993 237.109 28.2215 238.823 20.3385 244.932C18.8601 246.328 17.3817 247.615 15.9033 248.901ZM169.498 27.8958C172.826 26.3958 176.153 24.8958 179.475 23.5052C183.665 21.6823 187.975 19.7552 192.165 17.9323C196.6 16.1094 199.802 13.75 202.143 10.8594C203.25 10.6406 204.357 10.4271 205.465 10.1042C203.004 14.1771 198.94 17.3958 193.272 19.8594C189.082 21.6823 184.773 23.6094 180.583 25.4323C177.261 26.9323 173.933 28.4323 170.485 29.9323C162.973 33.151 156.198 38.1875 150.164 44.8333C140.306 55.7656 127.743 64.125 115.55 72.2708L114.197 73.2344C107.667 77.6302 103.112 81.1667 99.2935 84.8073C92.1468 91.4531 90.0578 100.245 92.889 110.854C96.3366 123.714 100.772 138.505 110.008 151.26C116.047 159.729 123.313 165.943 132.178 170.339C147.082 177.734 163.219 173.125 172.58 165.406C176.519 162.083 181.08 158.229 184.898 153.833C191.794 146.01 201.029 140.219 214.826 135.292C230.717 129.609 238.846 120.609 239.833 107.958C240.198 102.385 240.324 96.7083 240.444 91.2396C240.57 86.7396 240.57 82.0208 240.941 77.4167C241.312 70.3385 242.174 62.7292 245.992 55.7656C250.057 47.9427 257.688 43.224 265.08 38.6146C278.751 30.0417 288.974 20.8229 296.492 10.3229C297.474 8.92708 298.216 7.53646 298.833 6.14063C299.694 6.25 300.431 6.35417 301.293 6.46354C300.676 8.17708 299.814 9.78646 298.581 11.5C291.069 22.3229 280.475 31.7552 266.559 40.4375C259.418 44.8333 252.146 49.4427 248.327 56.7292C244.759 63.4792 243.898 70.7708 243.526 77.6302C243.281 82.2396 243.155 86.8438 243.036 91.4531C242.91 97.026 242.784 102.708 242.419 108.281C241.431 121.896 232.687 131.432 215.933 137.432C202.508 142.255 193.643 147.724 186.993 155.333C183.049 159.729 178.494 163.802 174.43 167.12C167.899 172.479 158.412 176.448 148.315 176.448C142.647 176.448 136.859 175.266 131.196 172.479C121.955 167.875 114.443 161.443 108.038 152.651C98.677 139.578 94.122 124.573 90.5486 111.604C87.4661 100.245 89.8064 90.8125 97.5696 83.6302C101.508 79.8802 106.189 76.2344 112.845 71.8438L114.197 70.875C126.27 62.8385 138.582 54.4792 148.315 43.7604C154.594 36.474 161.74 31.2188 169.498 27.8958ZM38.8158 225.964C29.6999 228.104 21.6972 231.964 14.6762 237.859C14.6762 237.432 14.5505 236.896 14.5505 236.469C21.5716 230.786 29.4545 227.036 38.4447 224.891C47.8061 222.75 53.4743 217.391 56.3055 208.172C56.5509 207.422 56.6766 206.776 56.7963 206.026C56.922 205.385 57.0477 204.635 57.2931 203.99C60.1243 193.807 66.2833 187.807 75.6447 186.417C82.7854 185.234 90.3032 185.771 97.3242 187.807C99.91 188.557 102.496 189.417 105.081 190.167C110.624 191.88 116.412 193.703 122.2 194.99C131.687 197.026 139.444 198.203 146.591 198.417C152.996 198.63 159.645 198.099 165.93 197.667C168.636 197.453 171.347 197.24 174.059 197.13C184.036 196.594 193.643 194.24 202.759 190.167C206.081 188.667 209.409 187.057 212.611 185.557C217.537 183.198 222.589 180.734 227.761 178.698C242.539 172.911 254.486 163.802 264.464 150.938C276.165 135.719 290.453 127.146 308.068 124.682C318.166 123.286 325.432 125.323 330.855 131.109C332.705 133.146 334.548 135.292 336.272 137.328L337.631 138.932C346.992 150.083 357.706 158.76 370.389 165.62C382.091 171.948 393.547 175.484 405.375 176.339C411.037 176.771 416.825 177.302 422.739 177.839L425.324 178.052C433.704 178.911 441.461 179.661 449.835 178.698C460.801 177.411 467.451 172.161 470.653 162.297C471.64 159.406 472.257 156.406 472.993 153.51C473.364 151.797 473.855 150.083 474.226 148.365C477.057 137.969 481.864 130.146 488.885 124.573C489.13 124.896 489.25 125.214 489.501 125.536C482.726 131.005 478.165 138.505 475.459 148.578C474.962 150.297 474.597 152.01 474.226 153.724C473.484 156.62 472.867 159.62 471.886 162.516C468.558 172.911 461.537 178.375 450.087 179.771C441.587 180.734 433.333 179.875 425.324 179.125L422.739 178.911C416.825 178.375 411.037 177.839 405.375 177.411C393.428 176.448 381.846 172.911 369.899 166.479C357.09 159.62 346.25 150.833 336.769 139.578L335.41 137.969C333.686 135.932 331.962 133.792 330.113 131.859C324.941 126.396 318.046 124.464 308.439 125.75C291.195 128.109 277.153 136.578 265.571 151.583C255.473 164.656 243.401 173.875 228.377 179.771C223.206 181.807 218.154 184.271 213.228 186.63C210.025 188.13 206.698 189.734 203.37 191.24C194.134 195.313 184.401 197.667 174.178 198.313C171.473 198.417 168.761 198.63 166.05 198.849C159.645 199.385 152.996 199.813 146.465 199.599C139.199 199.385 131.442 198.313 121.835 196.167C115.921 194.88 110.133 193.057 104.591 191.344C102.005 190.49 99.4132 189.734 96.8274 188.984C90.0578 186.948 82.7854 186.521 75.7644 187.703C66.8999 189.094 61.1119 194.667 58.4004 204.526C58.155 205.172 58.155 205.813 58.0293 206.563C57.9096 207.313 57.7839 208.063 57.5385 208.813C54.5817 217.927 48.5483 223.714 38.8158 225.964ZM250.919 439.781C250.547 439.781 250.057 439.781 249.686 439.677C250.422 432.708 246.854 426.599 239.091 421.563C228.748 414.813 214.706 406.771 197.953 403.984C191.674 402.911 184.653 403.557 178.123 404.307C170.611 405.271 162.973 406.771 155.581 408.917C151.146 410.203 147.698 411.703 145.113 413.74C144.741 413.526 144.376 413.313 144.005 413.203C146.711 411.057 150.529 409.344 155.336 407.953C162.848 405.807 170.611 404.198 178.123 403.344C184.773 402.484 191.794 401.948 198.324 403.021C215.323 405.917 229.484 414.063 239.953 420.813C247.962 426.063 251.78 432.385 250.919 439.781ZM452.427 334.318C457.844 339.896 462.77 345.146 467.451 350.182C467.205 350.505 466.96 350.823 466.714 351.042C461.908 345.896 456.982 340.536 451.439 334.964C442.694 325.854 430.502 320.922 419.662 317.281L418.303 316.849C410.546 314.172 402.538 311.49 394.038 310.849C388.747 310.422 383.45 310.422 379.015 310.422C369.653 310.422 360.046 310.526 350.811 308.063L349.823 307.849C343.664 306.24 337.26 304.526 330.855 303.557C323.834 302.49 317.549 305.276 311.761 308.385C309.056 309.885 306.344 311.49 303.633 312.99C298.833 315.776 294.026 318.672 288.855 321.031C280.726 324.891 271.976 326.708 262.74 326.604C260.154 326.604 257.443 326.604 254.857 326.604C250.176 326.708 245.25 326.708 240.444 326.391C236.015 326.068 231.208 324.995 226.899 323.281C220.494 320.708 219.016 314.813 218.525 310.526C216.921 297.771 209.654 291.771 193.643 290.057C181.08 288.661 170.485 291.021 161.124 297.344C154.348 301.953 150.164 308.599 148.315 317.495C148.189 318.349 147.944 319.208 147.824 320.068C146.962 324.568 146.1 329.177 144.125 333.464C139.815 342.896 130.58 348.469 123.062 352.328C108.409 359.828 98.1861 368.51 91.2848 379.333C91.0394 379.12 90.6683 378.797 90.3032 378.583C97.1985 367.651 107.547 358.969 122.326 351.359C129.718 347.609 138.708 342.146 142.898 333.031C144.741 328.964 145.603 324.354 146.465 319.849C146.591 318.995 146.836 318.135 146.962 317.281C148.806 308.063 153.121 301.203 160.142 296.484C169.623 290.057 180.834 287.484 193.517 288.984C210.271 290.911 217.908 297.021 219.507 310.417C220.249 316.849 222.709 320.495 227.144 322.318C231.334 324.031 235.889 325.104 240.198 325.318C245.005 325.641 249.805 325.531 254.486 325.531C257.078 325.531 259.783 325.422 262.369 325.531C271.239 325.641 279.864 323.818 287.867 320.068C292.919 317.708 297.845 314.813 302.526 312.135C305.111 310.526 307.943 309.026 310.654 307.526C316.687 304.203 323.218 301.307 330.61 302.49C337.134 303.453 343.538 305.167 349.697 306.776L350.685 306.99C359.801 309.349 369.282 309.349 378.524 309.24C383.079 309.24 388.376 309.24 393.793 309.667C402.418 310.313 410.546 313.099 418.429 315.776L419.782 316.208C431.112 320.068 443.431 325.104 452.427 334.318ZM467.822 334.75C469.917 337.104 472.005 339.464 474.226 341.714C473.735 342.359 473.238 343 472.867 343.536C470.407 341.073 468.193 338.5 465.852 335.927C464.123 334 462.399 331.964 460.555 330.031C454.396 323.495 446.142 318.563 434.686 314.49C414.981 307.526 393.793 301.417 368.049 294.984C361.399 293.38 355.24 290.594 349.081 287.807L347.728 287.161C335.907 281.911 325.067 283.516 313.365 292.094C310.654 294.13 307.943 296.057 305.237 298.094C302.155 300.344 299.078 302.594 295.995 304.953C289.836 309.563 282.696 312.24 274.813 312.885C269.144 313.313 263.231 312.026 256.826 308.917C251.284 306.349 246.238 302.38 240.815 296.703C229.73 284.911 216.304 279.339 199.922 279.552C189.453 279.661 177.135 280.516 165.188 285.339C153.241 290.271 143.88 298.307 136.859 310.099C135.015 313.099 133.285 316.313 131.561 319.313C129.718 322.635 127.743 326.068 125.654 329.391C122.08 335.286 115.921 338.609 110.504 341.073C107.913 342.25 105.327 343.536 102.867 344.719C98.9224 346.646 94.9839 348.573 90.794 350.292C83.0368 353.505 78.4758 358.651 76.6323 365.828C76.0158 365.188 75.2736 364.542 74.6571 363.901C76.8777 356.828 81.9235 351.578 89.6867 348.359C93.7509 346.646 97.6893 344.719 101.634 342.896C104.094 341.714 106.686 340.427 109.271 339.25C114.443 336.891 120.111 333.786 123.433 328.427C125.528 325.104 127.377 321.672 129.221 318.349C130.945 315.245 132.675 312.135 134.644 309.026C142.036 296.917 151.643 288.448 164.081 283.302C176.399 278.266 189.082 277.406 199.802 277.302C217.046 277.089 231.089 282.979 242.664 295.307C247.836 300.771 252.642 304.526 257.94 306.99C263.973 309.885 269.39 311.063 274.567 310.635C281.953 310.099 288.609 307.526 294.397 303.24C297.474 300.99 300.556 298.734 303.633 296.38C306.344 294.344 309.056 292.411 311.761 290.375C324.079 281.266 336.152 279.552 348.836 285.125L350.194 285.771C356.102 288.448 362.261 291.125 368.666 292.734C394.535 299.167 415.718 305.38 435.548 312.24C447.495 316.422 455.994 321.568 462.399 328.318C464.248 330.781 466.098 332.818 467.822 334.75ZM361.154 423.385C360.783 423.49 360.292 423.708 359.921 423.813C354.624 418.99 349.452 414.276 344.155 409.99C339.229 405.917 333.686 402.161 326.049 402.698C325.929 402.698 325.929 402.698 325.803 402.698C319.153 404.417 315.46 408.703 314.227 416.203C313.12 422.635 313.12 429.281 314.102 435.927C313.731 436.031 313.24 436.031 312.869 436.141C311.887 429.281 312.007 422.635 312.994 415.99C314.227 408.167 318.291 403.448 325.432 401.63C325.558 401.63 325.684 401.63 325.803 401.63H325.929C334.057 401.094 340.216 405.167 345.017 409.24C350.44 413.63 355.857 418.453 361.154 423.385ZM380.613 415.453C379.876 415.776 379.14 416.099 378.398 416.417C370.024 401.307 359.556 386.516 343.79 374.724C339.355 371.401 334.303 368.51 329.377 366.365C324.696 364.438 319.279 364.76 312.258 367.438L310.78 367.974C307.206 369.37 303.633 370.76 300.305 372.474C288.609 378.583 275.794 380.943 265.942 382.333C261.758 382.87 256.952 383.729 252.517 385.443C250.176 386.302 247.345 387.802 246.854 390.052C246.483 391.875 247.962 394.125 250.919 396.375C255.473 399.807 261.142 401.411 266.433 402.698C272.843 404.307 280.11 406.021 285.772 411.057C291.56 416.203 293.29 422.74 293.901 427.245C294.643 431.531 294.643 435.281 293.901 438.714C293.039 438.818 292.177 438.927 291.315 438.927C291.315 438.714 291.44 438.604 291.44 438.391C292.177 435.177 292.177 431.531 291.44 427.563C290.333 420.922 287.993 416.313 283.929 412.563C278.751 407.953 271.856 406.234 265.697 404.734C260.028 403.344 254.121 401.63 249.195 397.984C244.514 394.448 243.898 391.552 244.263 389.729C244.634 388.016 246.112 385.443 251.409 383.516C256.09 381.802 261.142 380.943 265.451 380.297C275.058 378.906 287.622 376.656 298.833 370.76C302.28 368.938 305.973 367.547 309.547 366.151L311.025 365.615C315.825 363.792 323.092 361.651 330.239 364.547C335.41 366.688 340.588 369.688 345.268 373.12C361.399 385.016 372.119 400.344 380.613 415.453ZM19.9734 269.26C19.8477 268.729 19.722 268.297 19.6023 267.76C25.7614 259.401 34.2608 254.578 44.8492 253.188C49.0391 252.651 53.3487 252.438 57.5385 252.224C59.388 252.115 61.2316 252.005 63.2008 251.901C68.3783 251.578 74.292 250.938 79.9543 248.901C87.5918 246.005 93.6252 240.755 97.815 233.146C103.729 222.531 111.115 217.495 122.08 216.958C125.037 216.854 128.114 216.422 131.071 216.104C133.285 215.891 135.506 215.568 137.72 215.458C139.815 215.354 141.785 215.141 143.76 215.031C152.259 214.385 161.124 213.635 169.749 213.208C173.568 212.995 177.38 213.104 181.08 213.104C185.144 213.208 189.334 213.208 193.398 212.995C200.419 212.568 206.326 211.708 211.504 210.313C224.678 206.672 237.858 202.599 250.547 198.63L253.75 197.667C266.188 193.807 274.813 187.594 280.23 178.589C282.815 174.302 285.898 170.552 289.22 167.656C297.228 160.797 304.495 160.047 311.761 165.729C314.347 167.766 316.813 170.552 319.028 173.979C321.123 177.302 323.092 180.625 325.067 183.948C327.653 188.453 330.364 193.167 333.441 197.453C341.815 209.458 353.025 210.635 367.439 208.708C372.119 208.063 376.674 206.995 381.229 205.922C384.928 205.063 388.621 204.208 392.44 203.563C397.983 202.599 405.249 201.526 412.641 201.635C417.322 201.74 422.122 202.276 426.683 202.703C430.131 203.135 433.704 203.453 437.152 203.672C441.832 203.885 446.633 203.885 451.194 203.776C452.918 203.776 454.516 203.672 456.24 203.672C465.356 203.563 474.346 201.635 482.726 197.88C490.728 194.24 499.353 189.307 501.323 180.411C502.31 176.125 501.694 171.411 500.951 166.802C500.832 165.839 500.706 164.87 500.586 164.016C499.97 158.87 499.724 153.724 501.323 149.01C501.568 149.651 501.813 150.297 502.065 150.938C501.077 155.12 501.323 159.51 501.813 163.906C501.939 164.87 502.065 165.729 502.184 166.693C502.801 171.411 503.537 176.125 502.43 180.625C500.335 189.953 491.47 195.094 483.216 198.849C474.717 202.703 465.601 204.74 456.24 204.74C454.516 204.74 452.918 204.74 451.194 204.849C446.513 204.958 441.707 204.958 437.026 204.74C433.453 204.526 429.885 204.099 426.438 203.776C421.877 203.24 417.196 202.703 412.515 202.703C405.375 202.599 398.108 203.672 392.685 204.526C388.992 205.172 385.174 206.026 381.6 206.885C377.045 207.958 372.365 209.135 367.684 209.672C354.749 211.385 341.695 211.172 332.453 197.88C329.377 193.49 326.665 188.771 323.954 184.271C321.985 180.948 320.015 177.625 317.92 174.302C315.825 170.979 313.485 168.302 310.899 166.37C304.249 161.12 297.6 161.766 290.082 168.302C286.879 171.089 283.803 174.839 281.337 179.021C275.794 188.234 266.93 194.667 254.121 198.526L250.919 199.49C238.11 203.453 224.929 207.635 211.749 211.172C206.572 212.568 200.538 213.531 193.398 213.958C189.334 214.172 185.018 214.172 180.954 214.068C179.11 214.068 177.261 213.958 175.411 213.958C173.442 213.958 171.592 213.958 169.749 214.068C161.124 214.495 152.259 215.141 143.76 215.891C141.665 215.995 139.696 216.208 137.72 216.318C135.506 216.531 133.285 216.745 131.196 216.958C128.239 217.281 125.157 217.604 122.2 217.818C111.731 218.354 104.591 223.177 99.0481 233.359C94.7385 241.182 88.5794 246.651 80.5708 249.542C74.7828 251.688 68.6237 252.328 63.4522 252.651C61.6027 252.755 59.6334 252.865 57.7839 252.974C53.5941 253.188 49.4102 253.401 45.2203 253.938C34.3806 255.651 26.0068 260.688 19.9734 269.26ZM504.405 286.198C504.279 286.521 504.154 286.948 504.034 287.271C486.173 277.089 467.941 273.979 448.237 277.729C442.694 278.802 437.026 279.229 432.1 278.802C423.23 278.156 416.825 272.693 411.654 268.297C404.633 262.297 397.492 257.901 389.974 254.901C387.514 253.938 385.048 252.974 382.708 252.005C376.303 249.542 369.527 246.969 363.374 243.859C357.09 240.755 350.811 236.786 344.155 231.859C341.449 229.823 338.983 227.25 336.769 224.786C335.045 223.068 333.315 221.141 331.472 219.531C323.954 212.885 310.283 210.849 299.694 214.922C288.974 218.995 284.048 226.927 280.475 234.109C279.122 237 278.015 240.005 276.908 243.005C276.046 245.469 275.184 247.932 274.07 250.292C271.114 257.151 265.326 260.474 257.94 259.938C254.366 259.615 250.793 259.188 247.345 258.651C245.621 258.438 244.017 258.224 242.293 258.01C239.462 257.688 236.505 257.26 233.794 256.828C227.27 255.865 220.494 254.901 213.844 254.792C208.421 254.688 202.759 255.651 197.336 256.615C195.367 256.938 193.272 257.365 191.303 257.578C166.176 261.333 144.251 270.87 126.144 285.661C116.538 293.484 103.603 303.563 88.6991 311.385C82.1749 314.813 75.1539 318.245 67.1453 319.531C62.8357 320.281 58.6458 320.922 54.3363 321.568C50.6432 322.104 46.8244 322.745 43.1254 323.385C42.88 323.068 42.7603 322.745 42.5089 322.422C46.4533 321.781 50.2721 321.135 54.0909 320.495C58.4004 319.849 62.5903 319.099 66.8999 318.458C74.6571 317.172 81.6781 313.74 88.0826 310.422C102.867 302.703 115.796 292.734 125.402 284.911C143.76 269.906 165.93 260.37 191.177 256.51C193.146 256.188 195.241 255.865 197.216 255.542C202.759 254.578 208.421 253.51 213.964 253.615C220.74 253.724 227.515 254.688 234.039 255.651C236.877 256.078 239.708 256.51 242.539 256.828C244.263 257.047 245.867 257.26 247.591 257.474C251.038 257.901 254.612 258.438 258.185 258.651C267.421 259.401 271.485 253.401 273.089 249.755C274.196 247.401 275.058 244.932 275.92 242.469C277.027 239.469 278.135 236.469 279.493 233.464C283.067 226.073 288.238 217.927 299.323 213.745C310.409 209.563 324.696 211.708 332.453 218.677C334.303 220.391 336.152 222.214 337.75 224.036C339.971 226.391 342.311 228.964 345.017 230.896C351.673 235.932 357.826 239.792 364.111 242.792C370.27 245.792 376.92 248.365 383.324 250.938C385.79 251.901 388.25 252.865 390.716 253.828C398.354 256.938 405.62 261.438 412.761 267.443C417.813 271.729 423.972 277.089 432.471 277.625C437.397 277.943 442.814 277.625 448.237 276.552C467.822 272.802 486.299 275.906 504.405 286.198ZM475.95 322.635C478.045 325.208 480.14 327.781 482.6 330.031C482.354 330.354 482.109 330.677 481.983 331C479.398 328.641 477.183 325.958 474.962 323.281L474.717 323.068C468.684 315.672 461.908 311.172 454.025 309.026C450.452 308.063 446.633 307.417 442.94 306.776C440.599 306.349 438.133 305.917 435.793 305.49C415.718 301.307 397.737 293.057 381.355 284.911C377.662 283.089 373.963 281.052 370.389 279.125C362.758 275.052 354.875 270.766 346.621 267.76C330.364 261.76 319.77 263.906 309.918 275.37C305.728 280.302 300.431 285.448 293.41 291.344C283.186 299.917 272.101 300.771 260.28 293.698C255.964 291.125 252.026 288.125 248.207 285.125C237.242 276.656 225.049 272.052 211.995 271.083C204.483 270.547 196.103 271.083 185.389 272.583C169.994 274.729 157.676 279.339 147.824 286.734C139.57 292.844 131.687 300.453 122.942 310.635C115.179 319.745 105.572 326.604 94.6128 330.891C85.6225 334.536 76.5066 337.641 66.5288 340.964C62.8357 342.25 59.9986 343.646 57.9096 345.25C57.6582 344.932 57.4128 344.719 57.1674 344.396C59.388 342.682 62.3389 341.286 66.0379 340C76.0158 336.573 85.006 333.464 93.9963 329.927C104.71 325.641 114.072 318.885 121.835 309.99C130.699 299.703 138.582 292.094 146.962 285.875C157.06 278.375 169.498 273.766 185.144 271.516C195.858 270.016 204.357 269.479 211.995 270.016C225.295 270.87 237.738 275.693 248.943 284.266C252.762 287.161 256.707 290.161 260.89 292.734C272.227 299.38 282.815 298.63 292.548 290.484C299.569 284.589 304.74 279.552 308.93 274.62C319.153 262.62 330.113 260.365 347.112 266.693C355.491 269.797 363.374 274.083 371.132 278.156C374.705 280.089 378.398 282.016 382.091 283.839C398.473 291.984 416.46 300.13 436.29 304.313C438.63 304.844 441.09 305.276 443.431 305.594C447.13 306.24 450.948 306.88 454.642 307.849C462.77 309.99 469.665 314.708 475.95 322.318V322.635ZM492.087 298.417C494.056 299.703 496.025 300.99 497.995 302.057C497.749 302.703 497.384 303.453 497.013 304.094C494.918 302.917 492.703 301.526 490.608 300.13C480.75 293.484 469.791 291.771 454.025 294.13C447.866 295.094 440.599 295.948 433.704 295.198C423.11 294.13 412.641 290.057 402.789 283.089C389.483 273.766 378.027 266.474 365.098 260.797C351.421 254.901 336.517 248.792 319.644 242.255C315.825 240.755 312.007 239.469 308.068 240.646C301.293 242.578 299.443 247.401 297.719 253.401C297.474 254.365 297.228 255.328 296.857 256.297C295.75 260.474 294.517 264.656 292.673 268.62C289.836 274.516 285.156 278.802 279.864 280.516C275.058 282.125 269.641 281.698 263.973 279.229C260.028 277.516 256.09 275.802 252.146 274.083C249.195 272.802 246.358 271.516 243.401 270.333C234.291 266.37 224.558 264.12 214.455 263.474C204.237 262.833 194.379 264.224 182.678 266.474C163.219 270.229 147.824 277.302 135.626 287.911C129.963 292.734 124.175 297.667 118.507 302.276C116.538 303.99 114.443 305.594 112.474 307.313C98.8027 318.672 82.0492 326.391 61.1119 330.891C57.5385 331.641 53.8454 332.714 49.6556 334.104C49.1648 333.464 48.7937 332.818 48.4226 332.177C52.8578 330.677 56.7963 329.604 60.6151 328.854C81.0616 324.458 97.4439 316.958 110.869 305.813C112.839 304.094 114.934 302.49 116.909 300.771C122.571 296.057 128.359 291.234 133.902 286.411C146.465 275.479 162.231 268.297 182.187 264.438C192.41 262.401 203.495 260.688 214.58 261.333C225.049 261.974 235.027 264.333 244.388 268.406C247.345 269.693 250.176 270.979 253.133 272.156C257.078 273.87 261.016 275.589 264.961 277.302C270.006 279.443 274.687 279.875 278.877 278.479C283.677 276.979 287.747 273.12 290.333 267.76C292.177 264.01 293.29 259.833 294.397 255.76C294.643 254.792 294.888 253.828 295.259 252.865C297.103 246.328 299.323 240.755 307.206 238.505C312.007 237.109 316.442 238.609 320.506 240.219C337.385 246.755 352.283 252.865 365.96 258.76C379.14 264.438 390.716 271.833 404.142 281.266C413.623 287.911 423.601 291.875 433.824 292.948C440.474 293.594 447.495 292.844 453.408 291.875C464.619 290.375 478.907 289.521 492.087 298.417ZM73.3044 82.4531C72.4424 82.8802 71.5805 83.4167 70.7186 83.8438C71.5805 82.9896 72.4424 82.0208 73.3044 81.1667C77.985 78.8073 82.9111 76.4479 87.4661 74.0938L92.1468 71.7344C111.977 61.875 127.868 52.6563 140.432 39.5781C147.082 32.7188 154.845 27.2552 161.615 22.9688C163.59 22.2188 165.433 21.4688 167.409 20.8229C159.526 25.4323 149.548 31.8646 141.294 40.3333C128.73 53.5156 112.839 62.8385 92.889 72.6979L88.2083 75.0573C83.2822 77.4167 78.2304 79.8802 73.3044 82.4531ZM165.685 384.156C169.007 384.156 172.951 382.979 174.549 381.052C175.782 379.656 176.273 378.37 175.908 377.193C175.657 376.12 174.549 375.156 172.951 374.51C172.089 374.193 171.227 373.974 170.365 373.87C169.994 373.76 169.623 373.76 169.252 373.656C169.132 373.656 169.007 373.656 168.887 373.656C168.761 373.656 168.516 373.656 168.39 373.656C167.654 373.974 166.912 374.297 166.05 374.62C164.206 375.37 162.357 376.12 160.753 377.297C159.771 378.047 159.274 379.016 159.4 380.193C159.526 381.583 160.633 382.87 162.111 383.516C163.093 384.052 164.326 384.156 165.685 384.156ZM160.753 380.083C160.633 379.333 161.004 378.583 161.615 378.156C163.093 377.083 164.943 376.333 166.666 375.693C167.409 375.37 168.271 375.047 169.007 374.724C169.007 374.724 169.007 374.724 169.132 374.724C169.498 374.833 169.869 374.833 170.24 374.943C171.102 375.047 171.838 375.156 172.454 375.474C173.813 376.01 174.549 376.656 174.795 377.51C175.04 378.37 174.675 379.333 173.687 380.516C171.838 382.656 165.559 383.943 162.848 382.656C161.615 382.12 160.878 381.156 160.753 380.083ZM447.62 355.865C450.332 359.719 451.81 363.365 452.056 366.901C451.194 367.76 450.452 368.51 449.59 369.26C450.087 365.51 448.728 361.328 445.526 356.932C439.983 349.219 432.1 342.786 421.141 337.427C415.963 334.854 408.942 331.854 401.556 331.318C396.75 331 391.087 331.75 384.312 333.464C376.303 335.604 369.162 337.214 361.525 336.354C355.12 335.604 348.345 334.214 341.198 332.068C329.131 328.531 317.675 329.818 306.099 335.927C301.047 338.609 295.995 341.396 291.195 344.182C287.251 346.432 283.067 348.786 278.997 351.042C269.144 356.401 257.94 359.292 245.496 359.719C243.281 359.828 241.06 359.938 238.72 360.042C235.518 360.255 232.196 360.365 228.994 360.474C218.274 360.688 208.176 358.438 199.677 356.292C193.889 354.792 187.729 353.292 181.696 352.969C175.04 352.542 167.899 354.146 161.004 357.365C143.389 365.724 131.196 374.833 122.697 386.089C119.74 389.948 117.519 393.698 115.796 397.448C115.059 397.021 114.443 396.589 113.707 396.161C115.43 392.516 117.645 388.766 120.602 385.016C129.347 373.438 141.785 364.115 159.771 355.646C167.038 352.219 174.675 350.609 181.816 350.932C188.101 351.255 194.379 352.859 200.293 354.365C208.547 356.505 218.525 358.651 228.868 358.438C232.07 358.328 235.398 358.219 238.6 358.005C240.815 357.901 243.155 357.792 245.376 357.682C257.443 357.255 268.283 354.365 277.77 349.323C281.834 347.073 286.018 344.823 289.962 342.573C294.888 339.786 299.94 337 304.986 334.318C317.184 327.891 329.377 326.495 342.06 330.245C348.961 332.281 355.611 333.677 361.896 334.427C369.037 335.286 375.932 333.677 383.695 331.641C390.836 329.714 396.75 328.964 401.921 329.391C409.93 329.927 417.196 333.141 422.619 335.823C433.704 341.177 441.952 347.823 447.62 355.865ZM455.132 348.682C457.598 351.469 459.693 354.255 461.417 357.042C461.172 357.365 460.92 357.578 460.555 357.901C458.706 355.005 456.491 352.219 454.025 349.323C441.952 335.286 425.57 325.745 405.375 320.922C397.121 318.885 388.376 318.995 378.524 321.245C367.439 323.818 355.737 323.172 342.928 319.313C338.247 317.922 334.057 317.063 330.113 316.635C324.57 316.099 318.537 317.281 312.258 320.068C307.081 322.422 301.783 324.995 296.738 327.568C290.579 330.677 284.294 333.786 277.77 336.573C266.684 341.396 255.845 344.286 244.634 345.469C230.346 346.969 217.663 343.859 202.879 338.609C198.94 337.214 194.996 335.391 191.303 333.677C189.824 333.036 188.346 332.281 186.742 331.641C179.23 328.318 176.153 328.641 169.623 333.464C158.412 341.823 148.069 349.219 137.966 356.292C134.273 358.865 130.334 361.438 126.635 363.901C122.942 366.365 118.998 368.833 115.305 371.51C109.146 375.797 104.962 381.693 101.143 387.479C100.772 387.266 100.526 387.052 100.155 386.729C104.094 380.833 108.284 375.047 114.568 370.651C118.262 368.083 122.2 365.51 125.899 363.042C129.592 360.578 133.537 358.005 137.23 355.432C147.327 348.359 157.676 340.859 168.887 332.604C175.782 327.458 179.475 327.141 187.358 330.568C188.837 331.214 190.441 331.964 191.919 332.604C195.612 334.318 199.431 336.036 203.37 337.427C217.908 342.573 230.472 345.682 244.514 344.182C255.599 343 266.188 340.109 277.153 335.391C283.558 332.604 289.836 329.495 295.995 326.391C301.047 323.818 306.344 321.245 311.516 318.885C317.92 315.995 324.205 314.813 330.113 315.349C334.057 315.776 338.367 316.635 343.173 318.031C355.737 321.781 367.067 322.422 378.027 319.958C388.005 317.708 396.995 317.599 405.494 319.635C426.438 324.781 442.94 334.536 455.132 348.682ZM505.387 272.906C506.249 273.333 507.236 273.766 508.218 274.089C508.098 274.406 507.972 274.839 507.972 275.156C506.991 274.729 505.878 274.302 504.896 273.87C494.302 268.943 482.845 266.37 468.929 264.01C449.344 260.688 434.321 253.188 423.11 240.969C419.291 236.896 414.856 233.036 407.589 232.823C404.387 232.714 401.185 231.427 398.473 230.141C396.63 229.286 395.888 228.536 395.768 227.573C395.768 226.604 396.504 225.75 398.354 224.568C401.311 222.75 404.878 222.531 409.068 223.818C415.718 225.854 421.506 224.786 428.778 222.318C438.63 218.995 448.237 215.781 458.215 214.172C477.674 211.068 495.535 204.422 512.653 193.917C512.899 193.807 513.024 193.703 513.27 193.594C513.27 194.026 513.395 194.453 513.395 194.776C496.025 205.385 478.045 212.135 458.46 215.245C448.608 216.854 438.995 219.964 429.143 223.281C421.877 225.75 415.598 227.036 408.577 224.786C406.973 224.25 405.375 224.036 404.016 224.036C402.172 224.036 400.449 224.464 398.97 225.427C397.612 226.286 396.875 226.927 396.875 227.464C396.875 227.891 397.612 228.427 398.97 229.073C401.556 230.25 404.633 231.536 407.589 231.646C415.347 231.859 420.279 236.036 423.972 240.109C435.057 252.115 449.835 259.51 469.055 262.833C480.385 264.76 493.44 267.333 505.387 272.906ZM420.524 355.219C424.217 359.292 424.217 363.365 420.398 366.797C417.442 369.365 414.239 371.62 411.037 373.87C402.789 379.547 398.719 385.016 398.108 391.339C397.612 396.161 397.492 401.307 397.737 406.984C397.366 407.203 396.995 407.417 396.504 407.63C396.133 401.734 396.259 396.375 396.875 391.229C397.857 382.656 404.513 376.979 410.301 373.01C413.503 370.87 416.705 368.615 419.536 366.047C422.984 363.042 422.984 359.615 419.536 355.865C415.347 351.359 409.684 348.786 403.034 348.573C399.09 348.469 394.29 349.323 390.1 351.146C378.769 355.865 367.313 355.651 353.887 350.292C347.974 347.932 341.695 345.573 335.29 344.182C326.911 342.359 318.411 343.432 310.899 347.505C302.155 352.219 294.152 356.615 286.389 361.005C277.77 365.938 267.911 367.651 258.55 369.26C256.461 369.583 254.366 369.901 252.271 370.333C244.759 371.51 236.996 372.797 229.73 374.833C222.338 376.87 218.154 379.87 217.046 383.62C215.933 387.375 218.399 391.984 223.816 396.911C228.377 400.984 234.039 404.198 239.462 407.307C240.815 408.167 242.293 408.917 243.652 409.667C247.219 411.703 250.919 413.63 254.612 415.453C256.461 416.417 258.185 417.276 260.028 418.24C266.188 421.458 269.761 424.885 270.749 428.849C271.61 432.172 270.749 435.818 268.037 440C267.546 440 267.049 440 266.559 440C269.39 435.927 270.377 432.385 269.516 429.068C268.528 425.422 265.206 422.099 259.292 419.099C257.443 418.135 255.719 417.276 253.869 416.313C250.176 414.49 246.358 412.563 242.784 410.417C241.431 409.557 240.079 408.807 238.6 408.057C233.058 404.844 227.389 401.63 222.709 397.557C216.795 392.302 214.335 387.375 215.568 383.193C216.675 379.016 221.23 375.797 229.113 373.656C236.505 371.62 244.263 370.333 251.78 369.151C253.869 368.833 255.964 368.51 258.059 368.083C267.421 366.474 277.027 364.865 285.407 360.042C293.164 355.651 301.173 351.146 309.918 346.432C317.801 342.25 326.546 341.073 335.29 343C341.815 344.5 348.219 346.859 354.133 349.219C367.187 354.365 378.398 354.682 389.357 350.073C393.793 348.255 398.719 347.286 402.909 347.396C410.055 347.719 416.089 350.396 420.524 355.219ZM418.555 143.755C418.92 143.755 419.417 143.755 419.782 143.755C427.79 143.755 433.453 140.438 436.41 134.005C441.09 123.823 446.513 111.714 451.068 99.4948C454.025 91.5625 455.875 79.6667 437.152 68.7344L435.919 67.9844C432.591 66.0521 429.143 64.0156 425.45 62.5156C423.23 61.6615 420.769 61.2292 418.303 60.9115C417.196 60.8021 416.214 60.5885 415.101 60.375C414.981 60.375 414.856 60.375 414.736 60.375C414.61 60.375 414.485 60.375 414.365 60.375C410.792 60.9115 409.313 62.9479 409.93 66.0521C410.055 66.5885 410.055 67.125 410.175 67.6615C410.421 69.2708 410.672 70.875 411.408 72.375C417.567 85.4531 415.472 97.4583 405.249 109.141C403.651 110.964 402.047 113.214 400.323 115.786C396.379 122 396.259 128.109 399.952 133.682C404.142 140.005 410.421 143.438 418.555 143.755ZM401.43 116.318C403.154 113.75 404.633 111.604 406.237 109.781C416.705 97.9948 418.8 85.2396 412.641 72.0573C412.025 70.6615 411.779 69.1615 411.534 67.6615C411.408 67.125 411.408 66.5885 411.282 66.0521C410.792 63.5885 412.025 62.0885 414.736 61.6615H414.856C414.856 61.6615 414.856 61.6615 414.981 61.6615C416.089 61.875 417.076 61.9792 418.184 62.1927C420.524 62.5156 422.984 62.8385 424.959 63.6979C428.527 65.0885 431.98 67.125 435.302 69.0521L436.535 69.8073C450.452 77.9479 454.642 87.0625 449.961 99.3854C445.406 111.604 439.983 123.714 435.302 133.896C432.345 140.219 426.803 143.328 418.675 142.901C411.037 142.578 405.004 139.365 400.939 133.359C397.492 128 397.612 122.109 401.43 116.318ZM237.493 438.818C236.996 438.818 236.631 438.714 236.134 438.714C234.536 433.891 230.963 429.708 225.42 426.172C216.55 420.49 206.572 417.599 194.996 417.385C188.591 417.276 181.199 417.276 174.304 419.422C171.473 420.276 168.887 421.453 166.666 422.849C166.295 422.74 165.805 422.526 165.433 422.313C167.899 420.703 170.731 419.313 173.933 418.349C181.08 416.203 188.591 416.099 194.996 416.313C206.823 416.526 217.046 419.526 226.156 425.313C232.07 429.068 235.889 433.568 237.493 438.818ZM222.954 437.104C222.338 436.995 221.727 436.891 221.23 436.891C217.412 432.922 211.504 430.349 203.866 429.068C201.281 428.635 198.689 428.531 195.983 428.422C194.75 428.422 193.517 428.318 192.284 428.208C192.165 428.208 192.165 428.208 192.165 428.208C192.165 428.208 192.165 428.208 192.039 428.208C191.303 428.318 190.561 428.531 189.699 428.635C188.717 428.849 187.729 429.068 186.622 429.281C185.88 429.068 185.263 428.849 184.527 428.635C186.131 428.208 187.855 427.885 189.453 427.563C190.195 427.458 190.932 427.245 191.674 427.135C191.794 427.135 191.919 427.135 192.039 427.135C192.165 427.135 192.165 427.135 192.284 427.135C193.517 427.245 194.75 427.245 195.983 427.349C198.569 427.458 201.281 427.563 203.986 427.995C212.611 429.385 219.016 432.385 222.954 437.104ZM20.7096 220.391C18.3693 221.891 16.2744 223.391 14.1794 225.104C14.1794 224.141 14.1794 223.177 14.1794 222.318C15.9033 221.031 17.5074 219.854 19.3569 218.677L19.722 218.458C26.4976 214.172 33.5186 209.672 37.7085 203.135C39.3066 200.563 40.9108 197.776 42.2635 195.094C43.3708 193.057 44.4841 190.917 45.7111 188.88C52.7321 176.984 65.0503 172.052 82.1749 174.411C92.2725 175.802 101.388 179.661 110.133 183.411C111.366 183.948 112.474 184.38 113.707 184.911C127.623 190.807 139.079 193.167 150.529 192.63C152.134 192.526 153.857 192.526 155.462 192.417C159.029 192.307 162.848 192.203 166.421 191.771C179.475 190.49 189.579 187.698 198.078 183.094C205.099 179.339 212.486 175.698 219.507 172.266C223.206 170.443 226.899 168.625 230.592 166.802C241.186 161.443 249.314 155.12 255.599 147.401C265.08 135.719 273.454 126.182 283.803 117.714C287.622 114.604 291.195 111.177 294.762 107.958C296.983 105.818 299.323 103.672 301.783 101.531C304.495 99.1719 307.206 96.7083 310.528 94.8854C316.322 91.5625 323.218 89.526 331.472 88.6667C337.996 88.026 342.928 88.9896 346.13 91.6667C349.332 94.2396 350.811 98.4219 350.559 103.885C350.314 108.818 349.578 113.75 348.836 117.927C347.728 124.464 349.207 130.682 353.271 136.578C362.758 150.297 377.41 160.479 396.63 166.802C409.559 171.089 423.846 172.589 441.587 171.625C451.559 171.089 458.089 167.339 461.046 160.479C462.524 156.943 464.003 153.401 465.356 149.865C466.834 146.115 468.438 142.151 470.036 138.292C473.61 130.036 478.661 123.286 485.311 117.927C485.682 118.573 486.047 119.214 486.544 119.859C480.385 124.896 475.579 131.323 472.377 139.042C470.778 142.792 469.174 146.76 467.696 150.51C466.343 153.938 464.865 157.583 463.386 161.12C460.184 168.729 452.672 173.125 441.832 173.661C423.726 174.625 409.193 173.016 395.888 168.729C376.058 162.193 361.034 151.688 351.302 137.646C346.992 131.323 345.268 124.573 346.495 117.604C347.237 113.427 347.974 108.604 348.219 103.781C348.47 98.9583 347.237 95.4219 344.526 93.276C341.815 91.1354 337.505 90.276 331.837 90.8125C323.834 91.5625 317.549 93.4896 312.007 96.7083C308.93 98.4219 306.344 100.781 303.759 103.135C301.418 105.172 299.078 107.422 296.857 109.458C293.29 112.781 289.717 116.214 285.898 119.323C275.794 127.682 267.421 137.115 258.059 148.688C251.655 156.724 243.155 163.266 232.316 168.729C228.622 170.552 224.929 172.375 221.23 174.198C214.209 177.625 206.823 181.271 199.922 185.021C191.177 189.734 180.708 192.63 167.283 194.026C163.59 194.453 159.771 194.557 156.072 194.667C154.474 194.776 152.75 194.776 151.146 194.88C139.444 195.417 127.377 192.953 113.21 186.948C111.977 186.417 110.869 185.984 109.636 185.448C101.017 181.807 92.027 177.948 82.2946 176.661C66.1577 174.411 55.0725 178.807 48.4226 189.953C47.1896 191.99 46.0822 194.13 44.9749 196.063C43.4965 198.74 42.0181 201.526 40.2942 204.208C35.859 211.281 28.5926 215.781 21.5716 220.281L20.7096 220.391ZM126.881 42.3698C118.262 49.4427 108.655 55.0156 97.6893 59.4063C100.281 57.3698 102.867 55.4427 105.572 53.5156C112.593 49.9792 119.123 45.7969 125.157 40.8646L125.283 40.7604C128.856 38.724 132.423 36.6875 136.122 34.7552C134.027 36.474 131.932 38.1875 129.838 40.0104L126.881 42.3698ZM249.56 5.5C248.943 5.17708 248.327 4.85417 247.836 4.42708C248.452 4.42708 249.069 4.31771 249.686 4.31771C249.805 4.42708 250.057 4.53125 250.176 4.64063C250.793 4.96354 251.655 4.96354 252.642 4.53125C252.888 4.42708 253.259 4.31771 253.504 4.10417C254.24 4.10417 254.983 4.10417 255.719 4C254.983 4.64062 254.121 5.06771 253.133 5.39063C252.397 5.60417 251.78 5.81771 251.164 5.81771C250.547 5.92708 250.057 5.71354 249.56 5.5ZM202.633 41.0833C201.526 40.974 200.419 40.7604 199.305 40.5469C198.815 40.4375 198.324 40.3333 197.707 40.3333C197.582 40.3333 197.462 40.3333 197.336 40.3333C197.216 40.3333 197.091 40.3333 196.965 40.3333C195.738 40.5469 194.505 40.651 193.398 40.8646C190.686 41.1875 187.975 41.6146 185.389 42.3698C178.123 44.724 171.838 49.0104 165.805 55.9792C161.004 61.6615 155.09 68.3021 148.441 74.5208C144.987 77.8438 140.923 80.7344 136.984 83.6302C135.506 84.7031 134.027 85.8802 132.549 86.9531C124.54 93.0625 120.476 101.099 120.476 110.208C120.602 120.5 121.835 133.792 130.699 144.938C134.644 149.865 139.444 152.87 144.741 153.62C145.603 153.724 146.346 153.833 147.208 153.833C151.643 153.833 156.072 152.333 160.388 149.438C165.433 146.01 170.365 142.365 175.292 138.828C178.859 136.255 182.678 133.469 186.377 130.896C191.423 127.359 195.367 124.896 199.186 122.75C213.964 114.818 221.476 103.031 222.218 86.6302C222.338 84.5938 222.463 82.5573 222.589 80.5208C222.834 76.7708 223.08 72.9115 222.954 69.1615C222.709 62.1927 221.476 56.7292 219.016 51.9063C216.059 45.5833 210.516 41.9375 202.633 41.0833ZM221.476 80.4167C221.356 82.4531 221.23 84.4896 221.111 86.526C220.494 102.495 213.102 114.068 198.689 121.786C194.75 123.823 190.806 126.396 185.76 129.932C182.061 132.505 178.248 135.292 174.675 137.865C169.869 141.401 164.943 145.042 159.891 148.365C155.09 151.688 149.919 153.083 145.113 152.438C140.186 151.797 135.626 148.901 131.932 144.292C123.313 133.359 122.08 120.286 121.955 110.104C121.835 101.208 125.899 93.4896 133.537 87.5938C135.015 86.526 136.493 85.3438 137.966 84.276C141.91 81.3802 145.974 78.3802 149.548 75.0573C156.198 68.7344 162.111 62.0885 167.038 56.4063C172.951 49.6563 178.985 45.3698 186.006 43.1198C188.466 42.3698 191.177 41.9375 193.763 41.6146C194.996 41.401 196.229 41.2969 197.462 41.0833H197.707C198.198 41.1875 198.689 41.2969 199.186 41.2969C200.293 41.5104 201.4 41.724 202.633 41.8333C210.145 42.6875 215.197 46.0104 218.154 52.0156C220.494 56.7292 221.727 62.0885 221.973 68.8385C222.092 72.9115 221.727 76.7708 221.476 80.4167ZM203.004 27.3646C205.345 26.7188 207.685 26.0781 210.025 25.5417C215.323 24.3594 218.525 21.2552 219.752 16.6458C220.368 14.1771 220.865 11.5 221.111 8.17708C221.111 7.85417 221.111 7.42708 221.23 7.10417C221.601 7 222.092 7 222.463 6.89063C222.463 7.31771 222.463 7.75 222.338 8.17708C222.092 11.5 221.601 14.2865 220.985 16.75C219.632 21.8958 216.059 25.1094 210.391 26.5052C208.05 27.0417 205.71 27.6823 203.495 28.3281C199.677 29.401 195.738 30.4688 191.674 31.1146C178.123 33.474 166.792 39.7969 157.922 49.7604C148.189 60.8021 136.368 69.5885 125.157 77.8438C119.614 81.9167 114.568 86.6302 110.624 91.6667C104.836 99.0625 105.943 107.854 107.547 114.818C109.888 125 112.839 135.719 118.633 145.26C122.2 151.26 127.623 158.76 137.355 162.943C144.867 166.156 152.134 165.839 158.909 161.979C165.314 158.333 170.856 154.156 175.166 149.76C184.156 140.651 194.996 134.219 204.357 129.182C209.529 126.396 214.826 123.073 219.878 119.536C225.666 115.464 228.748 109.568 229.855 100.995C230.346 96.7083 230.592 92.3125 230.837 88.026C231.089 83.526 231.334 78.8073 231.95 74.1979C232.316 70.9844 232.561 67.6615 232.687 64.5521C233.058 58.1198 233.303 51.4792 235.769 45.0469C237.738 39.6875 241.431 35.9375 247.345 33.151C254.612 29.8281 262.249 26.0781 268.654 20.9323C274.196 16.5365 278.386 11.5 281.463 5.5C281.588 5.17708 281.708 4.85417 281.834 4.53125C282.325 4.53125 282.696 4.53125 283.067 4.64063C282.941 5.06771 282.696 5.5 282.45 5.92708C279.368 12.0365 275.058 17.1823 269.39 21.6823C262.74 26.9323 255.102 30.6823 247.836 34.1146C242.174 36.6875 238.72 40.3333 236.877 45.3698C234.536 51.6927 234.165 58.2292 233.92 64.6615C233.794 67.875 233.549 71.1979 233.177 74.4115C232.561 78.9167 232.316 83.6302 232.07 88.1302C231.825 92.4219 231.579 96.8125 231.089 101.099C229.975 109.995 226.653 116.104 220.74 120.391C215.688 124.036 210.391 127.25 205.099 130.146C195.738 135.182 185.018 141.505 176.153 150.51C171.718 155.01 166.05 159.297 159.526 162.943C155.581 165.193 151.517 166.266 147.327 166.266C143.88 166.266 140.306 165.516 136.739 164.016C126.635 159.729 121.093 152.01 117.4 145.901C111.612 136.146 108.529 125.323 106.189 115.141C104.591 108.068 103.483 98.849 109.517 91.2396C113.455 86.0938 118.633 81.2708 124.295 77.1979C135.506 69.0521 147.208 60.2656 156.814 49.3333C165.805 39.151 177.38 32.7188 191.303 30.3646C195.241 29.5052 199.186 28.4323 203.004 27.3646ZM193.146 54.2656H193.027C192.901 54.2656 192.781 54.2656 192.781 54.2656C183.665 55.4427 178.614 61.125 173.813 67.3385C168.761 73.875 162.728 80.2031 154.229 87.8125L153.857 88.1302C147.824 93.4896 141.665 99.0625 138.463 106.458C134.518 115.677 134.764 124.146 139.079 131.646C141.539 135.719 144.376 138.182 147.824 139.042C148.686 139.255 149.548 139.365 150.529 139.365C153.367 139.365 156.689 138.401 160.142 136.469C167.774 132.292 175.166 127.359 182.313 122.646C186.131 120.073 190.195 117.5 194.134 114.927C202.633 109.568 208.05 102.172 210.391 92.849C212.486 84.1667 212.731 75.5938 210.762 67.4479C208.792 59.3021 201.155 53.5156 193.146 54.2656ZM209.038 92.6354C206.823 101.635 201.526 108.927 193.272 114.068C189.334 116.536 185.263 119.214 181.451 121.786C174.304 126.5 166.912 131.323 159.4 135.615C155.09 137.969 151.272 138.828 148.069 138.078C144.987 137.328 142.281 135.078 140.061 131.219C135.877 124.036 135.626 115.786 139.444 106.891C142.527 99.7083 148.686 94.2396 154.594 88.8802L154.965 88.5625C163.464 80.9531 169.623 74.6302 174.675 67.9844C179.356 61.9792 184.156 56.5156 192.901 55.3333H193.027C193.146 55.3333 193.146 55.3333 193.272 55.3333C200.538 54.5833 207.685 60.0521 209.409 67.6615C211.253 75.6979 211.133 84.0573 209.038 92.6354ZM65.2957 96.1719C64.4338 94.4531 63.8173 93.1719 63.5719 91.9896C63.943 91.5625 64.3141 91.1354 64.6792 90.7031C64.6792 91.9896 65.2957 93.4896 66.409 95.7396C67.1453 97.1354 67.8815 98.6354 68.6237 100.031C71.2094 104.854 73.7952 109.781 76.1355 114.818C77.985 119 79.7089 123.286 81.307 127.359C83.2822 132.182 85.2514 137.115 87.4661 141.828C89.4413 146.115 92.1468 150.083 95.349 153.297C103.232 161.229 114.072 171.193 128.485 177.625C146.22 185.557 170.611 182.344 185.263 170.016C187.484 168.089 189.699 166.052 191.794 164.016C196.474 159.51 201.281 154.797 207.685 151.797C211.133 150.188 214.706 148.901 218.274 147.615C221.727 146.328 225.295 145.042 228.622 143.542C243.772 136.365 252.397 124.464 254.121 107.958C254.737 102.599 253.995 97.2448 253.379 91.9896C253.007 89.099 252.642 86.0938 252.517 83.2031C251.78 68.7344 257.197 58.1198 269.144 50.9427C276.165 46.6563 283.186 42.3698 290.082 38.0781C293.781 35.8281 297.474 33.474 301.293 31.2188L301.909 30.7917C302.897 30.151 303.878 29.5052 304.986 29.1823C312.623 26.8281 317.43 27.0417 320.877 35.2917C321.739 37.3281 322.601 39.3646 323.343 41.401C324.57 44.401 325.803 47.4063 327.162 50.4063C329.006 54.6927 332.95 57.6927 339.229 59.4063C342.802 60.375 346.376 61.3385 349.943 62.3021L353.516 63.2656C366.451 66.8021 374.579 74.3073 377.907 85.776C379.386 91.026 379.14 96.7083 377.165 101.958C376.058 104.958 375.07 107.958 374.088 110.854C369.779 123.823 372.73 134.646 383.204 143.755C389.483 149.224 398.228 155.76 410.175 158.333C419.782 160.37 430.005 161.547 440.599 157.37C446.759 154.906 450.823 150.401 453.289 143.542C458.46 129.073 467.205 116.75 476.812 105.604C477.057 105.922 477.303 106.245 477.548 106.568C468.067 117.604 459.568 129.719 454.396 143.865C451.81 150.938 447.495 155.76 440.971 158.333C430.131 162.729 419.536 161.443 409.804 159.406C397.612 156.833 388.747 150.188 382.217 144.615C371.377 135.182 368.3 124.146 372.73 110.641C373.717 107.745 374.705 104.745 375.812 101.745C377.782 96.599 378.027 91.2396 376.548 86.2031C373.346 75.1615 365.463 67.875 353.025 64.4479L349.452 63.4792C345.879 62.5156 342.311 61.5521 338.738 60.5885C332.088 58.7656 327.898 55.6563 325.929 50.9427C324.57 47.9427 323.343 44.8333 322.11 41.8333C321.248 39.7969 320.506 37.7604 319.644 35.8281C316.813 29.0781 313.485 27.7917 305.357 30.3646C304.375 30.6823 303.388 31.2188 302.526 31.8646L301.909 32.2917C298.216 34.5417 294.517 36.901 290.698 39.151C283.803 43.4375 276.782 47.724 269.761 52.0156C258.185 58.9792 252.888 69.2708 253.75 83.3073C253.875 86.2031 254.24 89.2031 254.612 92.099C255.228 97.349 255.964 102.818 255.348 108.281C253.504 125.109 244.759 137.328 229.113 144.724C225.791 146.328 222.218 147.615 218.77 148.901C215.323 150.188 211.624 151.474 208.302 153.083C202.143 156.083 197.336 160.693 192.781 165.089C190.686 167.12 188.466 169.266 186.251 171.193C176.77 179.125 163.219 183.411 150.039 183.411C142.401 183.411 134.764 181.911 128.114 179.021C113.455 172.479 102.496 162.406 94.6128 154.37C91.2848 151.047 88.5794 146.974 86.4845 142.578C84.2638 137.755 82.2946 132.823 80.3254 128C78.7212 123.927 76.9974 119.641 75.1539 115.464C72.9333 110.427 70.2218 105.495 67.7618 100.781C66.7742 98.9583 66.0379 97.5625 65.2957 96.1719ZM28.7183 183.948C25.1449 191.24 20.4642 197.453 15.0414 202.703C15.1671 201.526 15.2928 200.24 15.4125 199.063C19.722 194.453 23.4211 189.203 26.3779 183.094C31.7948 172.161 39.0612 165.089 49.1648 160.797C55.689 158.01 62.4646 157.37 69.6113 158.87C82.7854 161.547 94.3674 167.552 105.698 173.229C112.964 176.875 121.338 181.161 130.083 184.38C143.018 189.094 156.323 187.917 167.654 186.094C182.678 183.734 194.505 176.125 204.848 168.406C210.516 164.12 217.537 160.479 226.037 157.37C236.134 153.62 244.388 147.828 250.302 140.219C256.581 132.182 263.728 123.073 268.283 113C270.749 107.641 270.377 102.385 270.006 96.8125C269.887 94.026 269.025 91.349 268.037 88.5625C267.546 86.9531 267.049 85.3438 266.684 83.7396C265.206 77.6302 268.163 70.6615 274.196 65.4115C280.11 60.375 287.622 58.1198 294.272 59.4063C298.952 60.2656 303.142 63.1615 305.973 65.4115C313.856 71.8438 323.092 72.9115 331.962 73.2344C337.876 73.4479 343.419 74.0938 348.219 75.1615C361.154 78.1667 367.313 87.3802 364.727 99.9219L364.482 101.313C363.123 107.641 361.896 114.281 360.783 120.823C359.675 128 362.387 134.755 369.037 141.615C380.122 152.974 391.824 159.943 404.878 163.052C418.429 166.266 428.778 166.906 438.63 165.302C448.111 163.693 454.396 158.333 458.335 148.26L458.58 147.615C461.663 139.578 464.984 131.323 470.407 123.927C473.484 119.536 477.183 115.677 481.121 112.141C481.493 112.781 481.983 113.427 482.354 114.068C478.661 117.391 475.333 121.036 472.377 125.109C467.079 132.396 463.877 140.438 460.801 148.365L460.555 149.01C456.365 159.62 449.344 165.729 438.995 167.443C428.778 169.156 418.058 168.406 404.142 165.193C390.591 161.979 378.524 154.797 367.067 143.115C360.046 135.932 357.09 128.323 358.197 120.609C359.304 114.068 360.537 107.422 361.896 101.099L362.141 99.7083C364.482 88.349 358.939 79.9844 347.357 77.4167C342.676 76.3438 337.385 75.6979 331.591 75.4844C322.727 75.1615 312.378 73.9844 304.004 67.125C300.431 64.2292 296.738 62.3021 293.535 61.6615C287.622 60.4792 280.972 62.5156 275.675 67.125C270.132 71.8438 267.546 78.1667 268.773 83.526C269.144 85.1302 269.641 86.7396 270.132 88.2396C270.994 91.026 271.982 93.9219 272.101 96.9219C272.472 102.495 272.843 108.281 270.132 114.068C265.451 124.359 258.305 133.578 251.9 141.719C245.621 149.651 237.122 155.656 226.528 159.62C218.154 162.729 211.504 166.156 205.961 170.339C195.241 178.271 183.174 186.094 167.528 188.557C155.827 190.38 142.036 191.667 128.611 186.734C119.74 183.521 111.241 179.234 103.974 175.484C92.889 169.802 81.4327 163.906 68.6237 161.333C61.9738 159.943 55.8147 160.583 49.7753 163.156C40.6653 166.693 33.8897 173.448 28.7183 183.948ZM346.866 34.651C346.621 28.9688 346.866 23.9323 347.854 19.4323C348.099 18.4688 348.345 17.3958 348.59 16.4323C348.961 16.5365 349.332 16.6458 349.823 16.75C349.578 17.7187 349.332 18.6823 349.081 19.6458C348.219 24.1458 347.854 28.9688 348.099 34.651C348.345 40.224 351.918 44.5104 358.323 46.974C380.738 55.5521 388.747 73.4479 393.176 88.1302C395.026 94.1354 392.195 100.031 389.357 105.818C389.112 106.354 388.867 106.995 388.496 107.531C386.155 112.354 384.557 116.964 383.695 121.359C382.588 126.823 384.431 132.396 389.357 137.865C398.354 147.938 409.193 152.87 422.619 152.87H422.739C432.717 152.87 439.738 149.115 444.293 141.505C445.771 139.042 447.004 136.365 448.237 133.682C449.219 131.542 450.332 129.286 451.439 127.146C456.365 118.141 461.537 108.818 467.079 99.599C467.822 98.3125 468.438 97.026 469.055 95.849C469.3 96.1719 469.665 96.599 469.917 96.9219C469.42 97.9948 468.803 99.0625 468.193 100.135C462.65 109.354 457.598 118.677 452.547 127.682C451.439 129.823 450.332 131.969 449.344 134.109C448.111 136.682 446.884 139.365 445.28 141.938C440.599 149.865 432.962 153.938 422.619 153.938H422.493C408.822 153.833 397.366 148.688 388.25 138.505C383.204 132.823 381.229 126.823 382.342 121.141C383.324 116.75 384.928 111.927 387.269 107.104C387.514 106.568 387.759 105.922 388.13 105.385C390.836 99.8125 393.547 94.1354 391.824 88.4531C383.45 61.0156 369.162 52.4427 357.706 48.0469C350.93 45.2604 347.112 40.651 346.866 34.651Z" fill="#FFCE6F"/>
</g>
</g>
</svg>
