<svg width="272" height="307" viewBox="0 0 272 307" fill="none" xmlns="http://www.w3.org/2000/svg">
<mask id="mask0_830_298" style="mask-type:alpha" maskUnits="userSpaceOnUse" x="0" y="0" width="272" height="307">
<rect width="272" height="307" fill="#D9D9D9"/>
</mask>
<g mask="url(#mask0_830_298)">
<mask id="mask1_830_298" style="mask-type:luminance" maskUnits="userSpaceOnUse" x="-242" y="-134" width="502" height="436">
<path d="M-242 -134H259.059V302H-242V-134Z" fill="white"/>
</mask>
<g mask="url(#mask1_830_298)">
<path d="M-204.004 162.99C-202.897 163.094 -201.789 163.094 -200.802 163.094C-184.545 163.094 -175.674 150.771 -173.214 146.802C-172.352 145.411 -172.227 144.016 -172.598 142.625C-173.214 140.693 -175.184 138.979 -178.26 137.589C-185.407 134.37 -191.566 132.979 -197.725 133.193C-198.952 133.297 -200.311 133.193 -201.663 133.193C-202.28 133.193 -202.897 133.193 -203.513 133.193C-203.633 133.193 -203.633 133.193 -203.758 133.193C-203.884 133.193 -204.004 133.083 -204.13 133.193C-210.779 134.693 -215.089 137.589 -217.429 141.979C-220.015 146.911 -220.141 152.057 -217.555 155.911C-215.089 159.984 -210.289 162.453 -204.004 162.99ZM-216.322 142.625C-214.107 138.443 -210.163 135.87 -203.758 134.37C-203.633 134.37 -203.633 134.37 -203.513 134.37C-202.897 134.37 -202.28 134.37 -201.663 134.37C-200.311 134.37 -198.952 134.37 -197.725 134.37C-191.811 134.156 -185.778 135.443 -178.877 138.656C-176.165 139.943 -174.322 141.443 -173.825 143.052C-173.46 144.125 -173.579 145.302 -174.322 146.375C-176.782 150.448 -186.388 163.63 -203.884 161.917C-209.792 161.38 -214.227 159.13 -216.448 155.594C-218.908 151.948 -218.782 147.234 -216.322 142.625ZM250.494 118.828C252.344 119.26 254.068 119.688 255.917 120.115C255.791 120.438 255.791 120.865 255.672 121.188C253.822 120.76 251.973 120.333 250.129 119.901C245.323 118.724 240.397 117.542 235.471 116.688C227.091 115.188 218.346 113.255 211.205 107.896C207.387 105.005 205.417 101.896 205.417 98.7865C205.417 96.1094 207.141 93.5365 210.218 91.2865C212.684 89.4635 215.395 87.6406 218.346 86.5677C222.781 84.9635 227.342 83.2448 231.772 81.5313C240.516 78.1042 249.513 74.6719 258.874 72.2083C258.874 72.5313 258.874 72.9583 258.874 73.2813C249.632 75.6354 240.768 79.0677 232.268 82.4948C227.959 84.2135 223.398 85.9271 218.843 87.6406C216.006 88.6042 213.42 90.4271 210.96 92.1406C208.123 94.1771 206.644 96.4323 206.525 98.7865C206.525 102.219 209.356 105.219 211.822 107.042C218.717 112.292 227.217 114.115 235.471 115.615C240.768 116.474 245.694 117.651 250.494 118.828ZM-129.119 118.615C-128.503 118.615 -127.886 118.724 -127.27 118.724C-126.527 118.724 -125.791 118.615 -125.055 118.51C-120.985 117.542 -116.675 116.26 -112.12 114.651C-101.406 111.005 -93.3975 108.115 -85.8857 105.328C-83.6651 104.469 -81.205 103.073 -79.1101 101.359C-77.7514 100.182 -77.0152 98.6823 -77.3863 97.2865C-77.7514 95.8958 -78.8647 94.9271 -80.5885 94.3958C-84.0362 93.4271 -87.7292 92.8958 -91.1829 92.3594C-92.6553 92.1406 -94.2594 91.9271 -95.7378 91.6094C-95.8575 91.6094 -95.9832 91.6094 -96.1089 91.6094C-96.2287 91.6094 -96.3543 91.5 -96.4741 91.6094C-98.0782 91.9271 -99.6763 92.25 -101.155 92.5729C-104.608 93.2135 -108.301 93.9635 -111.623 95.1458C-120.123 98.1458 -126.408 104.042 -131.088 113.151C-131.579 114.115 -131.579 115.401 -131.579 116.474C-131.579 117.01 -131.579 117.438 -131.579 117.974C-131.579 118.078 -131.579 118.297 -131.459 118.401C-131.334 118.51 -131.208 118.615 -130.963 118.615C-130.346 118.51 -129.73 118.51 -129.119 118.615ZM-130.226 116.474C-130.226 115.401 -130.226 114.438 -129.855 113.578C-125.3 104.682 -119.261 99 -111.013 96.1094C-107.685 94.9271 -104.237 94.2865 -100.79 93.5365C-99.1855 93.2135 -97.5874 92.8958 -95.9832 92.5729C-95.9832 92.5729 -95.9832 92.5729 -95.8576 92.5729H-95.7378C-94.2594 92.7865 -92.6553 93.1094 -91.1829 93.3229C-87.7292 93.8594 -84.0362 94.5 -80.7082 95.3594C-79.4812 95.6823 -78.6193 96.4323 -78.3679 97.3958C-78.1225 98.4688 -78.6193 99.5365 -79.7266 100.505C-81.8215 102.219 -84.0362 103.505 -86.2508 104.255C-93.7686 107.042 -101.897 109.932 -112.491 113.578C-117.046 115.188 -121.356 116.365 -125.3 117.438C-126.408 117.76 -127.641 117.651 -128.993 117.542C-129.364 117.542 -129.855 117.542 -130.226 117.438C-130.226 117.115 -130.226 116.792 -130.226 116.474ZM-207.086 175.958C-211.025 175.958 -215.089 175.635 -219.153 174.885C-219.524 174.026 -220.015 173.276 -220.386 172.526C-201.909 176.063 -184.79 172.526 -168.163 161.703C-153.133 151.839 -137.002 141.339 -120.985 130.729C-112.856 125.37 -103.866 121.188 -94.2594 118.297C-82.6834 114.865 -70.8561 111.865 -59.2801 108.865C-55.2159 107.792 -51.1517 106.828 -46.9619 105.755C-38.0913 103.505 -29.1011 104.469 -21.0985 105.432C-6.43995 107.146 2.18518 102.005 4.64523 90.3229C4.77092 90 4.77092 89.6771 4.89063 89.25C5.26173 87.75 5.50714 86.4635 5.50714 85.0677C5.38743 80.0313 2.30489 77.2448 -3.60281 76.8177C-4.46473 76.7083 -5.33263 76.7083 -6.06884 76.6042L-7.17616 76.4948C-7.17616 76.4948 -7.17616 76.4948 -7.30186 76.4948C-7.42157 76.4948 -7.42157 76.4948 -7.54727 76.4948C-14.688 76.6042 -21.3439 78.6406 -27.8681 80.5677C-31.8125 81.7448 -35.9964 83.0313 -40.312 83.8906C-46.7165 85.0677 -53.6118 86.0365 -60.8782 84.75C-63.9607 84.2135 -67.163 84.1042 -70.3652 84C-71.5983 84 -72.8253 83.8906 -74.0583 83.8906C-75.7821 83.7813 -77.6317 83.6771 -79.4812 83.5677C-83.7908 83.2448 -88.3457 83.0313 -92.6553 83.2448C-103.74 83.7813 -115.694 84.8542 -127.024 88.8229C-135.027 91.6094 -140.324 96.8594 -144.388 101.682C-148.949 106.932 -153.995 113.042 -161.016 117.542C-171.981 124.62 -184.048 124.724 -194.397 123.87C-195.876 123.76 -197.474 123.651 -198.952 123.651C-204.746 123.651 -210.163 124.62 -215.215 126.438C-222.601 129.229 -226.916 134.693 -229.748 139.193C-230.855 140.802 -231.717 142.516 -232.459 144.229C-232.824 143.161 -233.195 141.979 -233.441 140.911C-232.95 139.943 -232.459 139.089 -231.842 138.229C-228.76 133.516 -224.079 127.62 -216.077 124.62C-209.427 122.151 -202.035 121.188 -194.152 121.833C-184.3 122.688 -172.718 122.583 -162.375 115.828C-155.719 111.542 -150.673 105.646 -146.238 100.396C-141.928 95.3594 -136.385 89.7865 -127.886 86.8906C-116.184 82.8177 -104.112 81.7448 -92.781 81.1042C-88.226 80.8906 -83.6651 81.2083 -79.2298 81.4271C-77.506 81.5313 -75.6624 81.6406 -73.9386 81.7448C-72.7056 81.8542 -71.4726 81.8542 -70.3652 81.8542C-67.163 81.9635 -63.7153 82.0677 -60.5131 82.6042C-53.6118 83.8906 -47.0876 82.9271 -40.9285 81.7448C-36.8643 80.9948 -32.7942 79.7083 -28.8557 78.5313C-22.2058 76.4948 -15.3045 74.349 -7.79267 74.349C-7.67296 74.349 -7.67296 74.349 -7.54727 74.349C-7.42157 74.349 -7.30186 74.349 -7.17616 74.349L-6.06884 74.4583C-5.33263 74.5677 -4.46473 74.6719 -3.72851 74.6719C3.4182 75.2083 7.48236 78.9583 7.60207 85.0677C7.60207 86.6771 7.35666 88.1771 6.98556 89.6771C6.86585 90 6.86585 90.3229 6.74016 90.6406C4.02872 103.505 -5.82344 109.292 -21.8347 107.469C-29.5919 106.615 -38.3368 105.542 -46.7165 107.792C-50.7806 108.865 -54.8448 109.932 -59.0347 110.901C-70.485 113.792 -82.432 116.901 -93.8883 120.224C-103.25 123.01 -111.994 127.083 -119.877 132.333C-135.889 142.948 -152.026 153.557 -167.055 163.307C-179.493 171.776 -193.044 175.958 -207.086 175.958ZM-238.247 121.401C-238.492 120.438 -238.618 119.578 -238.738 118.615C-234.799 114.755 -229.993 111.219 -223.588 108.865C-217.31 106.505 -210.534 105.969 -204.13 105.432C-202.154 105.328 -200.185 105.109 -198.342 104.896C-188.854 103.932 -178.506 101.469 -173.951 91.1771L-173.334 89.7865C-172.227 87.2135 -170.994 84.5313 -169.886 81.8542C-167.42 75.7448 -162.865 68.8854 -149.069 69.099C-146.728 69.2083 -144.388 69.3125 -142.048 69.4219C-138.971 69.6354 -135.769 69.849 -132.567 69.7448C-116.675 69.4219 -100.538 68.9948 -84.8981 68.6719C-79.8463 68.5625 -74.8005 68.4583 -69.7487 68.2448C-61.1236 68.026 -52.7499 66.4219 -44.867 63.3125C-35.8767 59.8802 -28.3649 57.2031 -21.2182 54.7396C-3.72851 48.9479 8.09288 40.9115 16.1015 29.5521C19.9203 24.0833 25.3372 17.3333 33.8366 12.9375C39.7503 9.82813 46.2805 9.1875 53.918 10.901C61.6752 12.6146 66.4816 17.4375 71.282 22.1563C71.8985 22.7969 72.6347 23.4427 73.2512 24.0833C75.3461 26.0156 77.3154 28.1563 79.2906 30.0885C82.6125 33.5156 86.0602 37.0521 89.7592 40.2708C100.719 49.5938 113.282 54.0938 127.079 53.5573C129.174 53.4531 131.389 53.3438 133.483 53.1302C135.333 53.0208 137.176 52.9167 139.026 52.8073C154.301 52.0573 169.57 53.5573 183.864 55.1667C192.854 56.2396 202.335 56.776 211.325 54.3073C222.907 51.2031 229.186 45.6302 230.91 37.375C231.772 32.9792 232.023 28.4792 232.388 24.0833C232.514 22.0469 232.639 20.1198 232.885 18.1927C233.621 10.474 235.961 4.36459 240.151 -0.458329C240.522 0.291671 240.888 1.04167 241.259 1.90105C237.811 6.1875 235.961 11.5469 235.345 18.4063C235.225 20.3333 235.1 22.3698 234.854 24.2969C234.609 28.8021 234.238 33.4115 233.376 37.9115C231.526 47.0208 224.631 53.1302 212.193 56.5625C202.706 59.1302 192.854 58.5938 183.612 57.526C169.57 55.9167 154.421 54.526 139.271 55.1667C137.428 55.276 135.578 55.3802 133.729 55.4896C131.634 55.5938 129.419 55.8073 127.205 55.9167C112.666 56.4531 99.4857 51.7344 88.0354 41.9844C84.2167 38.7708 80.769 35.125 77.3154 31.6927C75.3461 29.7656 73.3769 27.6198 71.4077 25.6927C70.7912 25.0521 70.0489 24.4063 69.4324 23.7656C64.7518 19.1563 60.3225 14.7604 53.3015 13.2604C46.4002 11.651 40.3668 12.2969 35.0696 15.0833C27.067 19.2604 21.7698 25.8021 18.1964 31.0521C9.94241 42.8385 -2.37578 51.0938 -20.3563 57.0938C-27.503 59.4531 -35.0148 62.1354 -43.8853 65.5625C-52.1334 68.6719 -60.8782 70.4948 -69.7487 70.7083C-74.8005 70.8125 -79.8463 70.9219 -84.8981 71.1354C-100.538 71.5625 -116.675 71.9948 -132.567 72.2083C-135.769 72.3125 -139.091 72.099 -142.293 71.8854C-144.514 71.7813 -146.854 71.5625 -149.194 71.5625C-149.44 71.5625 -149.685 71.5625 -150.056 71.5625C-159.172 71.5625 -164.47 74.9948 -167.672 82.8177C-168.779 85.5 -169.886 88.1771 -171.119 90.75L-171.736 92.1406C-176.662 103.396 -187.747 105.969 -197.97 107.042C-199.94 107.255 -201.909 107.365 -203.884 107.578C-210.163 108.115 -216.693 108.542 -222.601 110.792C-228.515 113.042 -233.566 116.365 -238.247 121.401ZM-240.096 110.901C-240.096 110.469 -240.216 109.932 -240.216 109.505C-238.983 108.432 -237.756 107.365 -236.397 106.292C-228.269 99.9688 -218.046 98.25 -207.577 96.8594C-195.259 95.3594 -188.609 90.9635 -185.898 82.8177C-185.161 80.6771 -184.665 78.3177 -184.174 76.1719C-184.048 75.4219 -183.803 74.6719 -183.683 74.0313C-181.217 63.6354 -174.076 58.3802 -162.991 58.9167C-156.952 59.2396 -151.655 59.8802 -146.854 60.849C-135.152 63.3125 -122.463 65.5625 -109.163 65.026C-101.035 64.7031 -92.9067 64.4896 -83.2999 64.276C-75.417 64.0625 -65.0681 63.4219 -55.4613 59.9896C-45.2381 56.3438 -35.1345 52.1667 -25.2823 48.0938L-19.3687 45.7344C-7.91837 41.125 1.81408 33.7292 10.3135 23.1198L10.4332 22.9063C15.8561 16.1563 21.5244 9.29688 29.8981 4.57813C36.4223 1.04167 42.8328 -0.781246 48.9859 -0.671871C56.9945 -0.567704 64.1412 2.00521 69.4324 6.61459C71.282 8.22396 73.1315 9.82813 74.975 11.5469C80.0268 15.9375 85.1983 20.4427 90.3758 24.8333C105.896 38.125 124.864 44.7708 146.538 44.875C152.08 44.875 157.623 45.1979 163.046 45.6302C166.248 45.9479 169.325 46.2708 172.407 46.6979C180.907 47.7708 189.652 48.8438 198.516 47.9844C210.96 46.9115 219.088 41.0208 221.548 31.6927C222.662 27.6198 223.398 23.3333 224.014 19.2604C224.385 17.224 224.757 15.1875 225.122 13.151C226.845 4.57813 230.545 -2.28125 236.207 -7.53125C236.333 -7.21354 236.578 -6.78125 236.823 -6.45833C231.526 -1.42187 227.959 5.22396 226.355 13.2604C225.984 15.2969 225.618 17.3333 225.247 19.3698C224.505 23.5469 223.769 27.7292 222.662 31.9115C220.076 41.7708 211.576 47.8802 198.642 49.0573C189.652 49.9167 180.781 48.8438 172.282 47.7708C169.205 47.3438 166.003 47.0208 162.92 46.6979C157.503 46.1615 152.08 45.9479 146.538 45.9479C124.493 45.8438 105.399 38.9844 89.5138 25.5833C84.3364 21.1927 79.1649 16.6875 74.1131 12.2969C72.2696 10.6875 70.42 9.07813 68.5705 7.36459C63.399 2.86459 56.6234 0.505212 48.9859 0.401046C43.0782 0.291671 36.7934 2.00521 30.6343 5.4375C22.3863 9.9375 16.8437 16.7969 11.5465 23.4427L11.4208 23.6563C2.67599 34.375 -7.17616 41.875 -18.7581 46.5938L-24.6658 48.9479C-34.524 53.0208 -44.7472 57.0938 -54.9705 60.849C-64.697 64.3854 -75.1656 65.026 -83.1742 65.2396C-92.781 65.4531 -100.909 65.6719 -109.038 65.9896C-122.463 66.526 -135.272 64.276 -147.1 61.8125C-151.78 60.849 -156.952 60.2031 -162.991 59.8802C-176.045 59.2396 -180.726 67.276 -182.45 74.1354C-182.57 74.8854 -182.821 75.5313 -182.941 76.2813C-183.438 78.5313 -183.928 80.7813 -184.665 83.0313C-187.502 91.6094 -194.523 96.2135 -207.451 97.8229C-217.8 99.1094 -227.778 100.823 -235.661 106.932C-237.14 108.328 -238.618 109.615 -240.096 110.901ZM-86.5022 -110.104C-83.1742 -111.604 -79.8463 -113.104 -76.5243 -114.495C-72.3345 -116.318 -68.0249 -118.245 -63.835 -120.068C-59.3998 -121.891 -56.1975 -124.25 -53.8572 -127.141C-52.7499 -127.359 -51.6426 -127.573 -50.5352 -127.896C-52.9953 -123.823 -57.0594 -120.604 -62.7277 -118.141C-66.9176 -116.318 -71.2272 -114.391 -75.417 -112.568C-78.739 -111.068 -82.0669 -109.568 -85.5146 -108.068C-93.0264 -104.849 -99.802 -99.8125 -105.835 -93.1667C-115.694 -82.2344 -128.257 -73.875 -140.45 -65.7292L-141.802 -64.7656C-148.333 -60.3698 -152.888 -56.8333 -156.706 -53.1927C-163.853 -46.5469 -165.942 -37.7552 -163.111 -27.1458C-159.663 -14.2865 -155.228 0.505212 -145.992 13.2604C-139.953 21.7292 -132.686 27.9427 -123.822 32.3385C-108.918 39.7344 -92.781 35.125 -83.4197 27.4063C-79.4812 24.0833 -74.9202 20.2292 -71.1015 15.8333C-64.2061 8.01042 -54.9705 2.21875 -41.1739 -2.70833C-25.2823 -8.39062 -17.154 -17.3906 -16.1664 -30.0417C-15.8013 -35.6146 -15.6756 -41.2917 -15.5559 -46.7604C-15.4302 -51.2604 -15.4302 -55.9792 -15.0591 -60.5833C-14.688 -67.6615 -13.8261 -75.2708 -10.0073 -82.2344C-5.94315 -90.0573 1.68838 -94.776 9.08049 -99.3854C22.7514 -107.958 32.9747 -117.177 40.4925 -127.677C41.4741 -129.073 42.2163 -130.464 42.8328 -131.859C43.6947 -131.75 44.4309 -131.646 45.2929 -131.536C44.6763 -129.823 43.8144 -128.214 42.5814 -126.5C35.0696 -115.677 24.4752 -106.245 10.5589 -97.5625C3.4182 -93.1667 -3.8542 -88.5573 -7.67296 -81.2708C-11.2403 -74.5208 -12.1022 -67.2292 -12.4733 -60.3698C-12.7188 -55.7604 -12.8444 -51.1562 -12.9642 -46.5469C-13.0899 -40.974 -13.2155 -35.2917 -13.5807 -29.7187C-14.5683 -16.1042 -23.3131 -6.5677 -40.0666 -0.567704C-53.4921 4.25521 -62.3566 9.72396 -69.0065 17.3333C-72.951 21.7292 -77.506 25.8021 -81.5701 29.1198C-88.1003 34.4792 -97.5874 38.4479 -107.685 38.4479C-113.353 38.4479 -119.141 37.2656 -124.803 34.4792C-134.045 29.875 -141.557 23.4427 -147.961 14.651C-157.323 1.57813 -161.878 -13.4271 -165.451 -26.3958C-168.534 -37.7552 -166.193 -47.1875 -158.43 -54.3698C-154.492 -58.1198 -149.811 -61.7656 -143.155 -66.1562L-141.802 -67.125C-129.73 -75.1615 -117.417 -83.5208 -107.685 -94.2396C-101.406 -101.526 -94.2594 -106.781 -86.5022 -110.104ZM-217.184 87.9635C-226.3 90.1042 -234.303 93.9635 -241.324 99.8594C-241.324 99.4323 -241.449 98.8958 -241.449 98.4688C-234.428 92.7865 -226.545 89.0365 -217.555 86.8906C-208.194 84.75 -202.525 79.3906 -199.694 70.1719C-199.449 69.4219 -199.323 68.776 -199.203 68.026C-199.078 67.3854 -198.952 66.6354 -198.707 65.9896C-195.876 55.8073 -189.716 49.8073 -180.355 48.4167C-173.214 47.2344 -165.697 47.7708 -158.676 49.8073C-156.09 50.5573 -153.504 51.4167 -150.918 52.1667C-145.376 53.8802 -139.588 55.7031 -133.8 56.9896C-124.313 59.026 -116.555 60.2031 -109.409 60.4167C-103.004 60.6302 -96.3543 60.099 -90.0696 59.6667C-87.3641 59.4531 -84.6527 59.2396 -81.9412 59.1302C-71.9634 58.5938 -62.3566 56.2396 -53.2407 52.1667C-49.9187 50.6667 -46.5908 49.0573 -43.3885 47.5573C-38.4624 45.1979 -33.4107 42.7344 -28.2392 40.6979C-13.461 34.9115 -1.51387 25.8021 8.46399 12.9375C20.1657 -2.28124 34.4531 -10.8542 52.0685 -13.3177C62.166 -14.7135 69.4324 -12.6771 74.8553 -6.89062C76.7048 -4.85416 78.5484 -2.70833 80.2722 -0.671871L81.6309 0.932296C90.9923 12.0833 101.706 20.7604 114.39 27.6198C126.091 33.9479 137.548 37.4844 149.375 38.3385C155.037 38.7708 160.825 39.3021 166.739 39.8385L169.325 40.0521C177.704 40.9115 185.462 41.6615 193.835 40.6979C204.801 39.4115 211.451 34.1615 214.653 24.2969C215.641 21.4063 216.257 18.4063 216.993 15.5104C217.364 13.7969 217.855 12.0833 218.226 10.3646C221.057 -0.031246 225.864 -7.85416 232.885 -13.4271C233.13 -13.1042 233.25 -12.7865 233.501 -12.4635C226.726 -6.99479 222.165 0.505213 219.459 10.5781C218.963 12.2969 218.597 14.0104 218.226 15.724C217.484 18.6198 216.868 21.6198 215.886 24.5156C212.558 34.9115 205.537 40.375 194.087 41.7708C185.587 42.7344 177.333 41.875 169.325 41.125L166.739 40.9115C160.825 40.375 155.037 39.8385 149.375 39.4115C137.428 38.4479 125.846 34.9115 113.899 28.4792C101.09 21.6198 90.2501 12.8333 80.769 1.57813L79.4103 -0.031246C77.6865 -2.0677 75.9626 -4.20833 74.1131 -6.14062C68.9416 -11.6042 62.0463 -13.5365 52.4396 -12.25C35.1953 -9.89062 21.1533 -1.42187 9.57131 13.5833C-0.526258 26.6563 -12.599 35.875 -27.6227 41.7708C-32.7942 43.8073 -37.8459 46.2708 -42.772 48.6302C-45.9743 50.1302 -49.3022 51.7344 -52.6302 53.2396C-61.8658 57.3125 -71.5983 59.6667 -81.8215 60.3125C-84.527 60.4167 -87.2384 60.6302 -89.9498 60.849C-96.3543 61.3854 -103.004 61.8125 -109.534 61.599C-116.801 61.3854 -124.558 60.3125 -134.165 58.1667C-140.079 56.8802 -145.867 55.0573 -151.409 53.3438C-153.995 52.4896 -156.587 51.7344 -159.172 50.9844C-165.942 48.9479 -173.214 48.5208 -180.235 49.7031C-189.1 51.0938 -194.888 56.6667 -197.599 66.526C-197.845 67.1719 -197.845 67.8125 -197.97 68.5625C-198.09 69.3125 -198.216 70.0625 -198.461 70.8125C-201.418 79.9271 -207.451 85.7135 -217.184 87.9635ZM-5.08123 301.781C-5.45234 301.781 -5.94315 301.781 -6.31425 301.677C-5.57803 294.708 -9.1454 288.599 -16.9086 283.563C-27.2516 276.813 -41.2936 268.771 -58.0471 265.984C-64.3259 264.911 -71.3469 265.557 -77.8771 266.307C-85.3889 267.271 -93.0264 268.771 -100.419 270.917C-104.854 272.203 -108.301 273.703 -110.887 275.74C-111.258 275.526 -111.623 275.313 -111.994 275.203C-109.289 273.057 -105.47 271.344 -100.664 269.953C-93.1521 267.807 -85.3889 266.198 -77.8771 265.344C-71.2272 264.484 -64.2061 263.948 -57.676 265.021C-40.6771 267.917 -26.5154 276.063 -16.0467 282.813C-8.03808 288.063 -4.21932 294.385 -5.08123 301.781ZM196.427 196.318C201.844 201.896 206.77 207.146 211.451 212.182C211.205 212.505 210.96 212.823 210.715 213.042C205.908 207.896 200.982 202.536 195.439 196.964C186.695 187.854 174.502 182.922 163.662 179.281L162.304 178.849C154.546 176.172 146.538 173.49 138.038 172.849C132.747 172.422 127.45 172.422 123.015 172.422C113.653 172.422 104.047 172.526 94.811 170.063L93.8234 169.849C87.6643 168.24 81.2598 166.526 74.8553 165.557C67.8343 164.49 61.5495 167.276 55.7615 170.385C53.0561 171.885 50.3446 173.49 47.6332 174.99C42.8328 177.776 38.0264 180.672 32.855 183.031C24.7266 186.891 15.9758 188.708 6.74016 188.604C4.15442 188.604 1.44298 188.604 -1.14277 188.604C-5.82344 188.708 -10.7495 188.708 -15.5559 188.391C-19.9852 188.068 -24.7915 186.995 -29.1011 185.281C-35.5056 182.708 -36.984 176.813 -37.4748 172.526C-39.079 159.771 -46.3454 153.771 -62.3566 152.057C-74.9202 150.661 -85.5146 153.021 -94.8759 159.344C-101.652 163.953 -105.835 170.599 -107.685 179.495C-107.811 180.349 -108.056 181.208 -108.176 182.068C-109.038 186.568 -109.9 191.177 -111.875 195.464C-116.184 204.896 -125.42 210.469 -132.938 214.328C-147.59 221.828 -157.814 230.51 -164.715 241.333C-164.96 241.12 -165.331 240.797 -165.697 240.583C-158.801 229.651 -148.452 220.969 -133.674 213.359C-126.282 209.609 -117.292 204.146 -113.102 195.031C-111.258 190.964 -110.396 186.354 -109.534 181.849C-109.409 180.995 -109.163 180.135 -109.038 179.281C-107.194 170.063 -102.879 163.203 -95.8576 158.484C-86.3765 152.057 -75.1656 149.484 -62.4823 150.984C-45.7289 152.911 -38.0913 159.021 -36.4932 172.417C-35.751 178.849 -33.291 182.495 -28.8557 184.318C-24.6658 186.031 -20.1109 187.104 -15.8013 187.318C-10.9949 187.641 -6.19454 187.531 -1.51387 187.531C1.07786 187.531 3.78331 187.422 6.36906 187.531C15.2396 187.641 23.8647 185.818 31.8673 182.068C36.9191 179.708 41.8452 176.813 46.5259 174.135C49.1116 172.526 51.9428 171.026 54.6542 169.526C60.6876 166.203 67.2178 163.307 74.6099 164.49C81.1341 165.453 87.5386 167.167 93.6977 168.776L94.6853 168.99C103.801 171.349 113.282 171.349 122.524 171.24C127.079 171.24 132.376 171.24 137.793 171.667C146.418 172.313 154.546 175.099 162.429 177.776L163.782 178.208C175.113 182.068 187.431 187.104 196.427 196.318ZM211.822 196.75C213.917 199.104 216.006 201.464 218.226 203.714C217.736 204.359 217.239 205 216.868 205.536C214.408 203.073 212.193 200.5 209.853 197.927C208.123 196 206.399 193.964 204.555 192.031C198.396 185.495 190.142 180.563 178.686 176.49C158.982 169.526 137.793 163.417 112.049 156.984C105.399 155.38 99.2403 152.594 93.0812 149.807L91.7285 149.161C79.9071 143.911 69.0673 145.516 57.3656 154.094C54.6542 156.13 51.9428 158.057 49.2373 160.094C46.1548 162.344 43.0782 164.594 39.9957 166.953C33.8366 171.563 26.6959 174.24 18.8129 174.885C13.1447 175.313 7.23097 174.026 0.826469 170.917C-4.71612 168.349 -9.76191 164.38 -15.1848 158.703C-26.27 146.911 -39.6955 141.339 -56.0778 141.552C-66.5465 141.661 -78.8647 142.516 -90.8118 147.339C-102.759 152.271 -112.12 160.307 -119.141 172.099C-120.985 175.099 -122.715 178.313 -124.438 181.313C-126.282 184.635 -128.257 188.068 -130.346 191.391C-133.919 197.286 -140.079 200.609 -145.495 203.073C-148.087 204.25 -150.673 205.536 -153.133 206.719C-157.077 208.646 -161.016 210.573 -165.206 212.292C-172.963 215.505 -177.524 220.651 -179.367 227.828C-179.984 227.188 -180.726 226.542 -181.343 225.901C-179.122 218.828 -174.076 213.578 -166.313 210.359C-162.249 208.646 -158.31 206.719 -154.366 204.896C-151.906 203.714 -149.314 202.427 -146.728 201.25C-141.557 198.891 -135.889 195.786 -132.567 190.427C-130.472 187.104 -128.622 183.672 -126.779 180.349C-125.055 177.245 -123.325 174.135 -121.356 171.026C-113.964 158.917 -104.357 150.448 -91.9191 145.302C-79.6009 140.266 -66.9176 139.406 -56.1975 139.302C-38.9533 139.089 -24.9112 144.979 -13.3353 157.307C-8.16377 162.771 -3.35741 166.526 1.93977 168.99C7.97317 171.885 13.3901 173.063 18.5675 172.635C25.9537 172.099 32.6096 169.526 38.3975 165.24C41.4741 162.99 44.5566 160.734 47.6332 158.38C50.3446 156.344 53.0561 154.411 55.7615 152.375C68.0797 143.266 80.1525 141.552 92.8358 147.125L94.1945 147.771C100.102 150.448 106.261 153.125 112.666 154.734C138.535 161.167 159.718 167.38 179.548 174.24C191.495 178.422 199.994 183.568 206.399 190.318C208.248 192.781 210.098 194.818 211.822 196.75ZM105.154 285.385C104.783 285.49 104.292 285.708 103.921 285.813C98.6238 280.99 93.4523 276.276 88.1551 271.99C83.2291 267.917 77.6865 264.161 70.0489 264.698C69.9292 264.698 69.9292 264.698 69.8035 264.698C63.1536 266.417 59.4606 270.703 58.2276 278.203C57.1202 284.635 57.1202 291.281 58.1019 297.927C57.7308 298.031 57.2399 298.031 56.8688 298.141C55.8872 291.281 56.0069 284.635 56.9945 277.99C58.2276 270.167 62.2917 265.448 69.4324 263.63C69.5581 263.63 69.6838 263.63 69.8035 263.63H69.9292C78.0576 263.094 84.2167 267.167 89.017 271.24C94.4399 275.63 99.8568 280.453 105.154 285.385ZM124.613 277.453C123.877 277.776 123.14 278.099 122.398 278.417C114.025 263.307 103.556 248.516 87.79 236.724C83.3547 233.401 78.303 230.51 73.3769 228.365C68.6962 226.438 63.2793 226.76 56.2583 229.438L54.7799 229.974C51.2065 231.37 47.6332 232.76 44.3052 234.474C32.6096 240.583 19.7946 242.943 9.94241 244.333C5.75853 244.87 0.952164 245.729 -3.4831 247.443C-5.82344 248.302 -8.65459 249.802 -9.1454 252.052C-9.5165 253.875 -8.03808 256.125 -5.08123 258.375C-0.526258 261.807 5.14203 263.411 10.4332 264.698C16.8437 266.307 24.1101 268.021 29.7724 273.057C35.5604 278.203 37.2902 284.74 37.9007 289.245C38.643 293.531 38.643 297.281 37.9007 300.714C37.0388 300.818 36.1769 300.927 35.315 300.927C35.315 300.714 35.4407 300.604 35.4407 300.391C36.1769 297.177 36.1769 293.531 35.4407 289.563C34.3334 282.922 31.993 278.313 27.9289 274.563C22.7514 269.953 15.8561 268.234 9.697 266.734C4.02872 265.344 -1.87898 263.63 -6.80506 259.984C-11.4857 256.448 -12.1022 253.552 -11.7371 251.729C-11.366 250.016 -9.8876 247.443 -4.59042 245.516C0.09025 243.802 5.14203 242.943 9.4516 242.297C19.0583 240.906 31.6219 238.656 42.8328 232.76C46.2805 230.938 49.9735 229.547 53.5469 228.151L55.0253 227.615C59.8257 225.792 67.0921 223.651 74.2388 226.547C79.4103 228.688 84.5878 231.688 89.2684 235.12C105.399 247.016 116.119 262.344 124.613 277.453ZM-236.026 131.26C-236.152 130.729 -236.278 130.297 -236.397 129.76C-230.238 121.401 -221.739 116.578 -211.151 115.188C-206.961 114.651 -202.651 114.438 -198.461 114.224C-196.612 114.115 -194.768 114.005 -192.799 113.901C-187.621 113.578 -181.708 112.938 -176.045 110.901C-168.408 108.005 -162.375 102.755 -158.185 95.1458C-152.271 84.5313 -144.885 79.4948 -133.919 78.9583C-130.963 78.8542 -127.886 78.4219 -124.929 78.1042C-122.715 77.8906 -120.494 77.5677 -118.279 77.4583C-116.184 77.3542 -114.215 77.1406 -112.24 77.0313C-103.74 76.3854 -94.8759 75.6354 -86.2508 75.2083C-82.432 74.9948 -78.6193 75.1042 -74.9202 75.1042C-70.8561 75.2083 -66.6662 75.2083 -62.602 74.9948C-55.581 74.5677 -49.6733 73.7083 -44.4958 72.3125C-31.3217 68.6719 -18.1416 64.599 -5.45234 60.6302L-2.25009 59.6667C10.1878 55.8073 18.8129 49.5938 24.2298 40.5885C26.8156 36.3021 29.8981 32.5521 33.2201 29.6563C41.2287 22.7969 48.4951 22.0469 55.7615 27.7292C58.3473 29.7656 60.8133 32.5521 63.0279 35.9792C65.1229 39.3021 67.0921 42.625 69.0673 45.9479C71.6531 50.4531 74.3645 55.1667 77.4411 59.4531C85.8148 71.4583 97.0257 72.6354 111.439 70.7083C116.119 70.0625 120.674 68.9948 125.229 67.9219C128.928 67.0625 132.622 66.2083 136.44 65.5625C141.983 64.599 149.249 63.526 156.641 63.6354C161.322 63.7396 166.122 64.276 170.683 64.7031C174.131 65.1354 177.704 65.4531 181.152 65.6719C185.833 65.8854 190.633 65.8854 195.194 65.776C196.918 65.776 198.516 65.6719 200.24 65.6719C209.356 65.5625 218.346 63.6354 226.726 59.8802C234.728 56.2396 243.354 51.3073 245.323 42.4115C246.31 38.125 245.694 33.4115 244.952 28.8021C244.832 27.8385 244.706 26.8698 244.587 26.0156C243.97 20.8698 243.725 15.724 245.323 11.0104C245.568 11.651 245.814 12.2969 246.065 12.9375C245.077 17.1198 245.323 21.5104 245.814 25.9063C245.939 26.8698 246.065 27.7292 246.185 28.6927C246.801 33.4115 247.537 38.125 246.43 42.625C244.335 51.9531 235.471 57.0938 227.217 60.849C218.717 64.7031 209.601 66.7396 200.24 66.7396C198.516 66.7396 196.918 66.7396 195.194 66.849C190.513 66.9583 185.707 66.9583 181.026 66.7396C177.453 66.526 173.886 66.099 170.438 65.776C165.877 65.2396 161.196 64.7031 156.516 64.7031C149.375 64.599 142.109 65.6719 136.686 66.526C132.993 67.1719 129.174 68.026 125.601 68.8854C121.046 69.9583 116.365 71.1354 111.684 71.6719C98.7495 73.3854 85.6951 73.1719 76.4534 59.8802C73.3769 55.4896 70.6655 50.7708 67.954 46.2708C65.9848 42.9479 64.0155 39.625 61.9206 36.3021C59.8257 32.9792 57.4854 30.3021 54.8996 28.3698C48.2497 23.1198 41.5998 23.7656 34.082 30.3021C30.8797 33.0885 27.8032 36.8385 25.3372 41.0208C19.7946 50.2344 10.93 56.6667 -1.87898 60.526L-5.08123 61.4896C-17.8902 65.4531 -31.0703 69.6354 -44.2504 73.1719C-49.4279 74.5677 -55.4613 75.5313 -62.602 75.9583C-66.6662 76.1719 -70.9818 76.1719 -75.0459 76.0677C-76.8895 76.0677 -78.739 75.9583 -80.5885 75.9583C-82.5577 75.9583 -84.4073 75.9583 -86.2508 76.0677C-94.8759 76.4948 -103.74 77.1406 -112.24 77.8906C-114.335 77.9948 -116.304 78.2083 -118.279 78.3177C-120.494 78.5313 -122.715 78.7448 -124.803 78.9583C-127.76 79.2813 -130.843 79.6042 -133.8 79.8177C-144.268 80.3542 -151.409 85.1771 -156.952 95.3594C-161.261 103.182 -167.42 108.651 -175.429 111.542C-181.217 113.688 -187.376 114.328 -192.548 114.651C-194.397 114.755 -196.366 114.865 -198.216 114.974C-202.406 115.188 -206.59 115.401 -210.779 115.938C-221.619 117.651 -229.993 122.688 -236.026 131.26ZM248.405 148.198C248.28 148.521 248.154 148.948 248.034 149.271C230.173 139.089 211.942 135.979 192.237 139.729C186.695 140.802 181.026 141.229 176.1 140.802C167.23 140.156 160.825 134.693 155.654 130.297C148.633 124.297 141.492 119.901 133.974 116.901C131.514 115.938 129.048 114.974 126.708 114.005C120.303 111.542 113.528 108.969 107.375 105.859C101.09 102.755 94.811 98.7865 88.1551 93.8594C85.4497 91.8229 82.9836 89.25 80.769 86.7865C79.0452 85.0677 77.3154 83.1406 75.4718 81.5313C67.954 74.8854 54.2831 72.849 43.6947 76.9219C32.9747 80.9948 28.0486 88.9271 24.4752 96.1094C23.1225 99 22.0152 102.005 20.9079 105.005C20.046 107.469 19.184 109.932 18.0707 112.292C15.1139 119.151 9.3259 122.474 1.93977 121.938C-1.63358 121.615 -5.20693 121.188 -8.65459 120.651C-10.3784 120.438 -11.9825 120.224 -13.7064 120.01C-16.5375 119.688 -19.4944 119.26 -22.2058 118.828C-28.73 117.865 -35.5056 116.901 -42.1555 116.792C-47.5784 116.688 -53.2407 117.651 -58.6636 118.615C-60.6328 118.938 -62.7277 119.365 -64.697 119.578C-89.8242 123.333 -111.749 132.87 -129.855 147.661C-139.462 155.484 -152.397 165.563 -167.301 173.385C-173.825 176.813 -180.846 180.245 -188.854 181.531C-193.164 182.281 -197.354 182.922 -201.663 183.568C-205.357 184.104 -209.175 184.745 -212.874 185.385C-213.12 185.068 -213.239 184.745 -213.491 184.422C-209.546 183.781 -205.728 183.135 -201.909 182.495C-197.599 181.849 -193.409 181.099 -189.1 180.458C-181.343 179.172 -174.322 175.74 -167.917 172.422C-153.133 164.703 -140.204 154.734 -130.597 146.911C-112.24 131.906 -90.0696 122.37 -64.8227 118.51C-62.8534 118.188 -60.7585 117.865 -58.7833 117.542C-53.2407 116.578 -47.5784 115.51 -42.0358 115.615C-35.2602 115.724 -28.4846 116.688 -21.9604 117.651C-19.1233 118.078 -16.2921 118.51 -13.461 118.828C-11.7371 119.047 -10.133 119.26 -8.40918 119.474C-4.96152 119.901 -1.38817 120.438 2.18518 120.651C11.4208 121.401 15.485 115.401 17.0891 111.755C18.1964 109.401 19.0583 106.932 19.9203 104.469C21.0276 101.469 22.1349 98.4688 23.4936 95.4635C27.067 88.0729 32.2385 79.9271 43.3236 75.7448C54.4088 71.5625 68.6962 73.7083 76.4534 80.6771C78.303 82.3906 80.1525 84.2135 81.7506 86.0365C83.9713 88.3906 86.3116 90.9635 89.017 92.8958C95.6729 97.9323 101.826 101.792 108.111 104.792C114.27 107.792 120.92 110.365 127.324 112.938C129.79 113.901 132.25 114.865 134.716 115.828C142.354 118.938 149.62 123.438 156.761 129.443C161.813 133.729 167.972 139.089 176.471 139.625C181.397 139.943 186.814 139.625 192.237 138.552C211.822 134.802 230.299 137.906 248.405 148.198ZM219.95 184.635C222.045 187.208 224.14 189.781 226.6 192.031C226.355 192.354 226.109 192.677 225.984 193C223.398 190.641 221.183 187.958 218.963 185.281L218.717 185.068C212.684 177.672 205.908 173.172 198.025 171.026C194.452 170.063 190.633 169.417 186.94 168.776C184.6 168.349 182.134 167.917 179.793 167.49C159.718 163.307 141.737 155.057 125.355 146.911C121.662 145.089 117.963 143.052 114.39 141.125C106.758 137.052 98.8752 132.766 90.6212 129.76C74.3645 123.76 63.7701 125.906 53.918 137.37C49.7281 142.302 44.4309 147.448 37.4099 153.344C27.1867 161.917 16.1015 162.771 4.28011 155.698C-0.0354448 153.125 -3.97391 150.125 -7.79267 147.125C-18.7581 138.656 -30.9506 134.052 -44.005 133.083C-51.5169 132.547 -59.8966 133.083 -70.6106 134.583C-86.0054 136.729 -98.3236 141.339 -108.176 148.734C-116.43 154.844 -124.313 162.453 -133.058 172.635C-140.821 181.745 -150.427 188.604 -161.387 192.891C-170.377 196.536 -179.493 199.641 -189.471 202.964C-193.164 204.25 -196.001 205.646 -198.09 207.25C-198.342 206.932 -198.587 206.719 -198.832 206.396C-196.612 204.682 -193.661 203.286 -189.962 202C-179.984 198.573 -170.994 195.464 -162.003 191.927C-151.289 187.641 -141.928 180.885 -134.165 171.99C-125.3 161.703 -117.417 154.094 -109.038 147.875C-98.9401 140.375 -86.5022 135.766 -70.8561 133.516C-60.142 132.016 -51.6426 131.479 -44.005 132.016C-30.7052 132.87 -18.2613 137.693 -7.05645 146.266C-3.23769 149.161 0.706758 152.161 4.89063 154.734C16.2272 161.38 26.8156 160.63 36.548 152.484C43.569 146.589 48.7405 141.552 52.9304 136.62C63.1536 124.62 74.1131 122.365 91.112 128.693C99.4917 131.797 107.375 136.083 115.132 140.156C118.705 142.089 122.398 144.016 126.091 145.839C142.474 153.984 160.46 162.13 180.29 166.313C182.63 166.844 185.091 167.276 187.431 167.594C191.13 168.24 194.949 168.88 198.642 169.849C206.77 171.99 213.665 176.708 219.95 184.318V184.635ZM236.087 160.417C238.056 161.703 240.026 162.99 241.995 164.057C241.749 164.703 241.384 165.453 241.013 166.094C238.918 164.917 236.704 163.526 234.609 162.13C224.751 155.484 213.791 153.771 198.025 156.13C191.866 157.094 184.6 157.948 177.704 157.198C167.11 156.13 156.641 152.057 146.789 145.089C133.483 135.766 122.027 128.474 109.098 122.797C95.4215 116.901 80.5176 110.792 63.6444 104.255C59.8257 102.755 56.0069 101.469 52.0685 102.646C45.2929 104.578 43.4433 109.401 41.7195 115.401C41.4741 116.365 41.2287 117.328 40.8576 118.297C39.7503 122.474 38.5173 126.656 36.6737 130.62C33.8366 136.516 29.1559 140.802 23.8647 142.516C19.0583 144.125 13.6415 143.698 7.97317 141.229C4.02872 139.516 0.0902511 137.802 -3.8542 136.083C-6.80506 134.802 -9.6422 133.516 -12.599 132.333C-21.709 128.37 -31.4414 126.12 -41.545 125.474C-51.7623 124.833 -61.6204 126.224 -73.3221 128.474C-92.781 132.229 -108.176 139.302 -120.374 149.911C-126.037 154.734 -131.825 159.667 -137.493 164.276C-139.462 165.99 -141.557 167.594 -143.526 169.313C-157.197 180.672 -173.951 188.391 -194.888 192.891C-198.461 193.641 -202.154 194.714 -206.344 196.104C-206.835 195.464 -207.206 194.818 -207.577 194.177C-203.142 192.677 -199.203 191.604 -195.385 190.854C-174.938 186.458 -158.556 178.958 -145.13 167.813C-143.161 166.094 -141.066 164.49 -139.091 162.771C-133.429 158.057 -127.641 153.234 -122.098 148.411C-109.534 137.479 -93.7686 130.297 -73.8129 126.438C-63.5896 124.401 -52.5045 122.688 -41.4193 123.333C-30.9506 123.974 -20.9728 126.333 -11.6114 130.406C-8.65459 131.693 -5.82344 132.979 -2.86659 134.156C1.07786 135.87 5.01633 137.589 8.96078 139.302C14.0066 141.443 18.6872 141.875 22.8771 140.479C27.6775 138.979 31.7476 135.12 34.3334 129.76C36.1769 126.01 37.2902 121.833 38.3975 117.76C38.643 116.792 38.8884 115.828 39.2595 114.865C41.103 108.328 43.3236 102.755 51.2065 100.505C56.0069 99.1094 60.4422 100.609 64.5064 102.219C81.3855 108.755 96.2835 114.865 109.96 120.76C123.14 126.438 134.716 133.833 148.142 143.266C157.623 149.911 167.601 153.875 177.824 154.948C184.474 155.594 191.495 154.844 197.409 153.875C208.62 152.375 222.907 151.521 236.087 160.417ZM-182.695 -55.5469C-183.557 -55.1198 -184.419 -54.5833 -185.281 -54.1562C-184.419 -55.0104 -183.557 -55.9792 -182.695 -56.8333C-178.015 -59.1927 -173.089 -61.5521 -168.534 -63.9062L-163.853 -66.2656C-144.023 -76.125 -128.131 -85.3437 -115.568 -98.4219C-108.918 -105.281 -101.155 -110.745 -94.3851 -115.031C-92.4099 -115.781 -90.5664 -116.531 -88.5911 -117.177C-96.4741 -112.568 -106.452 -106.135 -114.706 -97.6667C-127.27 -84.4844 -143.161 -75.1615 -163.111 -65.3021L-167.791 -62.9427C-172.718 -60.5833 -177.769 -58.1198 -182.695 -55.5469ZM-90.315 246.156C-86.993 246.156 -83.0485 244.979 -81.4504 243.052C-80.2174 241.656 -79.7266 240.37 -80.0917 239.193C-80.3431 238.12 -81.4504 237.156 -83.0485 236.51C-83.9105 236.193 -84.7724 235.974 -85.6343 235.87C-86.0054 235.76 -86.3765 235.76 -86.7476 235.656C-86.8673 235.656 -86.993 235.656 -87.1127 235.656C-87.2384 235.656 -87.4838 235.656 -87.6095 235.656C-88.3457 235.974 -89.0879 236.297 -89.9498 236.62C-91.7934 237.37 -93.6429 238.12 -95.247 239.297C-96.2287 240.047 -96.7254 241.016 -96.5998 242.193C-96.4741 243.583 -95.3667 244.87 -93.8883 245.516C-92.9067 246.052 -91.6737 246.156 -90.315 246.156ZM-95.247 242.083C-95.3667 241.333 -94.9956 240.583 -94.3851 240.156C-92.9067 239.083 -91.0572 238.333 -89.3333 237.693C-88.5911 237.37 -87.7292 237.047 -86.993 236.724C-86.993 236.724 -86.993 236.724 -86.8673 236.724C-86.5022 236.833 -86.1311 236.833 -85.76 236.943C-84.8981 237.047 -84.1619 237.156 -83.5453 237.474C-82.1866 238.01 -81.4504 238.656 -81.205 239.51C-80.9596 240.37 -81.3247 241.333 -82.3123 242.516C-84.1619 244.656 -90.4407 245.943 -93.1521 244.656C-94.3851 244.12 -95.1213 243.156 -95.247 242.083ZM191.621 217.865C194.332 221.719 195.811 225.365 196.056 228.901C195.194 229.76 194.452 230.51 193.59 231.26C194.087 227.51 192.728 223.328 189.526 218.932C183.983 211.219 176.1 204.786 165.141 199.427C159.963 196.854 152.942 193.854 145.556 193.318C140.75 193 135.088 193.75 128.312 195.464C120.303 197.604 113.163 199.214 105.525 198.354C99.1206 197.604 92.345 196.214 85.1983 194.068C73.1315 190.531 61.6752 191.818 50.0992 197.927C45.0475 200.609 39.9957 203.396 35.1953 206.182C31.2508 208.432 27.067 210.786 22.9968 213.042C13.1447 218.401 1.93977 221.292 -10.5041 221.719C-12.7188 221.828 -14.9394 221.938 -17.2797 222.042C-20.482 222.255 -23.8039 222.365 -27.0062 222.474C-37.7262 222.688 -47.8238 220.438 -56.3232 218.292C-62.1112 216.792 -68.2703 215.292 -74.3037 214.969C-80.9596 214.542 -88.1003 216.146 -94.9956 219.365C-112.611 227.724 -124.804 236.833 -133.303 248.089C-136.26 251.948 -138.48 255.698 -140.204 259.448C-140.94 259.021 -141.557 258.589 -142.293 258.161C-140.569 254.516 -138.355 250.766 -135.398 247.016C-126.653 235.438 -114.215 226.115 -96.2287 217.646C-88.9622 214.219 -81.3247 212.609 -74.184 212.932C-67.8992 213.255 -61.6204 214.859 -55.7067 216.365C-47.4527 218.505 -37.4748 220.651 -27.1319 220.438C-23.9296 220.328 -20.6017 220.219 -17.3994 220.005C-15.1848 219.901 -12.8444 219.792 -10.6238 219.682C1.44298 219.255 12.2827 216.365 21.7698 211.323C25.8339 209.073 30.0178 206.823 33.9623 204.573C38.8884 201.786 43.9401 199 48.9859 196.318C61.1844 189.891 73.3769 188.495 86.0602 192.245C92.9615 194.281 99.6114 195.677 105.896 196.427C113.037 197.286 119.932 195.677 127.695 193.641C134.836 191.714 140.75 190.964 145.921 191.391C153.93 191.927 161.196 195.141 166.619 197.823C177.704 203.177 185.952 209.823 191.621 217.865ZM199.133 210.682C201.599 213.469 203.694 216.255 205.417 219.042C205.172 219.365 204.921 219.578 204.555 219.901C202.706 217.005 200.491 214.219 198.025 211.323C185.952 197.286 169.57 187.745 149.375 182.922C141.121 180.885 132.376 180.995 122.524 183.245C111.439 185.818 99.7371 185.172 86.9281 181.313C82.2474 179.922 78.0576 179.063 74.1131 178.635C68.5705 178.099 62.5371 179.281 56.2583 182.068C51.0809 184.422 45.7837 186.995 40.7379 189.568C34.5788 192.677 28.294 195.786 21.7698 198.573C10.6846 203.396 -0.155154 206.286 -11.366 207.469C-25.6534 208.969 -38.3368 205.859 -53.121 200.609C-57.0594 199.214 -61.0039 197.391 -64.697 195.677C-66.1754 195.036 -67.6538 194.281 -69.2579 193.641C-76.7697 190.318 -79.8463 190.641 -86.3765 195.464C-97.5874 203.823 -107.93 211.219 -118.034 218.292C-121.727 220.865 -125.665 223.438 -129.364 225.901C-133.058 228.365 -137.002 230.833 -140.695 233.51C-146.854 237.797 -151.038 243.693 -154.857 249.479C-155.228 249.266 -155.473 249.052 -155.844 248.729C-151.906 242.833 -147.716 237.047 -141.431 232.651C-137.738 230.083 -133.8 227.51 -130.101 225.042C-126.408 222.578 -122.463 220.005 -118.77 217.432C-108.673 210.359 -98.3236 202.859 -87.1127 194.604C-80.2174 189.458 -76.5243 189.141 -68.6414 192.568C-67.163 193.214 -65.5589 193.964 -64.0805 194.604C-60.3874 196.318 -56.5686 198.036 -52.6302 199.427C-38.0913 204.573 -25.5278 207.682 -11.4857 206.182C-0.400563 205 10.1878 202.109 21.1533 197.391C27.5578 194.604 33.8366 191.495 39.9957 188.391C45.0475 185.818 50.3446 183.245 55.5161 180.885C61.9206 177.995 68.2054 176.813 74.1131 177.349C78.0576 177.776 82.3671 178.635 87.1735 180.031C99.7371 183.781 111.068 184.422 122.027 181.958C132.005 179.708 140.995 179.599 149.495 181.635C170.438 186.781 186.94 196.536 199.133 210.682ZM249.387 134.906C250.249 135.333 251.236 135.766 252.218 136.089C252.098 136.406 251.973 136.839 251.973 137.156C250.991 136.729 249.878 136.302 248.896 135.87C238.302 130.943 226.845 128.37 212.929 126.01C193.345 122.688 178.321 115.188 167.11 102.969C163.291 98.8958 158.856 95.0365 151.59 94.8229C148.387 94.7135 145.185 93.4271 142.474 92.1406C140.63 91.2865 139.888 90.5365 139.768 89.5729C139.768 88.6042 140.504 87.75 142.354 86.5677C145.311 84.75 148.878 84.5313 153.068 85.8177C159.718 87.8542 165.506 86.7865 172.778 84.3177C182.63 80.9948 192.237 77.7813 202.215 76.1719C221.674 73.0677 239.535 66.4219 256.653 55.9167C256.899 55.8073 257.024 55.7031 257.27 55.5938C257.27 56.026 257.396 56.4531 257.396 56.776C240.026 67.3854 222.045 74.1354 202.461 77.2448C192.608 78.8542 182.996 81.9635 173.143 85.2813C165.877 87.75 159.598 89.0365 152.577 86.7865C150.973 86.25 149.375 86.0365 148.016 86.0365C146.173 86.0365 144.449 86.4635 142.97 87.4271C141.612 88.2865 140.876 88.9271 140.876 89.4635C140.876 89.8906 141.612 90.4271 142.97 91.0729C145.556 92.25 148.633 93.5365 151.59 93.6458C159.347 93.8594 164.279 98.0365 167.972 102.109C179.057 114.115 193.835 121.51 213.055 124.833C224.385 126.76 237.44 129.333 249.387 134.906ZM164.524 217.219C168.217 221.292 168.217 225.365 164.399 228.797C161.442 231.365 158.24 233.62 155.037 235.87C146.789 241.547 142.719 247.016 142.109 253.339C141.612 258.161 141.492 263.307 141.737 268.984C141.366 269.203 140.995 269.417 140.504 269.63C140.133 263.734 140.259 258.375 140.876 253.229C141.857 244.656 148.513 238.979 154.301 235.01C157.503 232.87 160.706 230.615 163.537 228.047C166.984 225.042 166.984 221.615 163.537 217.865C159.347 213.359 153.685 210.786 147.035 210.573C143.09 210.469 138.29 211.323 134.1 213.146C122.769 217.865 111.313 217.651 97.8876 212.292C91.9739 209.932 85.6951 207.573 79.2906 206.182C70.9109 204.359 62.4114 205.432 54.8996 209.505C46.1548 214.219 38.1521 218.615 30.3889 223.005C21.7698 227.938 11.9116 229.651 2.5503 231.26C0.461352 231.583 -1.63358 231.901 -3.72851 232.333C-11.2403 233.51 -19.0035 234.797 -26.27 236.833C-33.6621 238.87 -37.8459 241.87 -38.9533 245.62C-40.0666 249.375 -37.6005 253.984 -32.1836 258.911C-27.6227 262.984 -21.9604 266.198 -16.5375 269.307C-15.1848 270.167 -13.7064 270.917 -12.3476 271.667C-8.78028 273.703 -5.08123 275.63 -1.38817 277.453C0.461352 278.417 2.18518 279.276 4.02872 280.24C10.1878 283.458 13.7612 286.885 14.7488 290.849C15.6107 294.172 14.7488 297.818 12.0373 302C11.5465 302 11.0497 302 10.5589 302C13.3901 297.927 14.3777 294.385 13.5158 291.068C12.5281 287.422 9.20619 284.099 3.2925 281.099C1.44298 280.135 -0.28085 279.276 -2.13038 278.313C-5.82344 276.49 -9.6422 274.563 -13.2155 272.417C-14.5683 271.557 -15.921 270.807 -17.3994 270.057C-22.942 266.844 -28.6103 263.63 -33.291 259.557C-39.2047 254.302 -41.6647 249.375 -40.4317 245.193C-39.3244 241.016 -34.7694 237.797 -26.8865 235.656C-19.4944 233.62 -11.7371 232.333 -4.21932 231.151C-2.13038 230.833 -0.0354444 230.51 2.05949 230.083C11.4208 228.474 21.0276 226.865 29.4073 222.042C37.1645 217.651 45.1731 213.146 53.918 208.432C61.8009 204.25 70.5457 203.073 79.2906 205C85.8148 206.5 92.2193 208.859 98.133 211.219C111.187 216.365 122.398 216.682 133.358 212.073C137.793 210.255 142.719 209.286 146.909 209.396C154.056 209.719 160.089 212.396 164.524 217.219ZM162.555 5.75521C162.92 5.75521 163.417 5.75521 163.782 5.75521C171.791 5.75521 177.453 2.4375 180.41 -3.99479C185.091 -14.1771 190.513 -26.2865 195.068 -38.5052C198.025 -46.4375 199.875 -58.3333 181.152 -69.2656L179.919 -70.0156C176.591 -71.9479 173.143 -73.9844 169.45 -75.4844C167.23 -76.3385 164.77 -76.7708 162.304 -77.0885C161.196 -77.1979 160.215 -77.4115 159.101 -77.625C158.982 -77.625 158.856 -77.625 158.736 -77.625C158.611 -77.625 158.485 -77.625 158.365 -77.625C154.792 -77.0885 153.313 -75.0521 153.93 -71.9479C154.056 -71.4115 154.056 -70.875 154.175 -70.3385C154.421 -68.7292 154.672 -67.125 155.408 -65.625C161.567 -52.5469 159.473 -40.5417 149.249 -28.8594C147.651 -27.0365 146.047 -24.7865 144.323 -22.2135C140.379 -16 140.259 -9.89062 143.952 -4.3177C148.142 2.00521 154.421 5.4375 162.555 5.75521ZM145.431 -21.6823C147.154 -24.25 148.633 -26.3958 150.237 -28.2187C160.706 -40.0052 162.8 -52.7604 156.641 -65.9427C156.025 -67.3385 155.779 -68.8385 155.534 -70.3385C155.408 -70.875 155.408 -71.4115 155.283 -71.9479C154.792 -74.4115 156.025 -75.9115 158.736 -76.3385H158.856C158.856 -76.3385 158.856 -76.3385 158.982 -76.3385C160.089 -76.125 161.077 -76.0208 162.184 -75.8073C164.524 -75.4844 166.984 -75.1615 168.96 -74.3021C172.527 -72.9115 175.981 -70.875 179.303 -68.9479L180.536 -68.1927C194.452 -60.0521 198.642 -50.9375 193.961 -38.6146C189.406 -26.3958 183.983 -14.2865 179.303 -4.10416C176.346 2.21875 170.803 5.32813 162.675 4.90105C155.037 4.57813 149.004 1.36459 144.94 -4.64062C141.492 -10 141.612 -15.8906 145.431 -21.6823ZM-18.5067 300.818C-19.0035 300.818 -19.3687 300.714 -19.8655 300.714C-21.4636 295.891 -25.0369 291.708 -30.5795 288.172C-39.4501 282.49 -49.4279 279.599 -61.0039 279.385C-67.4084 279.276 -74.8005 279.276 -81.6958 281.422C-84.527 282.276 -87.1127 283.453 -89.3333 284.849C-89.7044 284.74 -90.1953 284.526 -90.5664 284.313C-88.1003 282.703 -85.2692 281.313 -82.0669 280.349C-74.9202 278.203 -67.4084 278.099 -61.0039 278.313C-49.1765 278.526 -38.9533 281.526 -29.8433 287.313C-23.9296 291.068 -20.1109 295.568 -18.5067 300.818ZM-33.0456 299.104C-33.6621 298.995 -34.2726 298.891 -34.7694 298.891C-38.5881 294.922 -44.4958 292.349 -52.1334 291.068C-54.7191 290.635 -57.3108 290.531 -60.0163 290.422C-61.2493 290.422 -62.4823 290.318 -63.7153 290.208C-63.835 290.208 -63.835 290.208 -63.835 290.208C-63.835 290.208 -63.835 290.208 -63.9607 290.208C-64.697 290.318 -65.4392 290.531 -66.3011 290.635C-67.2827 290.849 -68.2703 291.068 -69.3776 291.281C-70.1198 291.068 -70.7363 290.849 -71.4726 290.635C-69.8684 290.208 -68.1446 289.885 -66.5465 289.563C-65.8043 289.458 -65.0681 289.245 -64.3259 289.135C-64.2061 289.135 -64.0805 289.135 -63.9607 289.135C-63.835 289.135 -63.835 289.135 -63.7153 289.135C-62.4823 289.245 -61.2493 289.245 -60.0163 289.349C-57.4305 289.458 -54.7191 289.563 -52.0137 289.995C-43.3885 291.385 -36.984 294.385 -33.0456 299.104ZM-235.29 82.3906C-237.63 83.8906 -239.725 85.3906 -241.82 87.1042C-241.82 86.1406 -241.82 85.1771 -241.82 84.3177C-240.096 83.0313 -238.492 81.8542 -236.643 80.6771L-236.278 80.4583C-229.502 76.1719 -222.481 71.6719 -218.291 65.1354C-216.693 62.5625 -215.089 59.776 -213.736 57.0938C-212.629 55.0573 -211.516 52.9167 -210.289 50.8802C-203.268 38.9844 -190.949 34.0521 -173.825 36.4115C-163.727 37.8021 -154.611 41.6615 -145.867 45.4115C-144.634 45.9479 -143.526 46.3802 -142.293 46.9115C-128.377 52.8073 -116.921 55.1667 -105.47 54.6302C-103.866 54.526 -102.142 54.526 -100.538 54.4167C-96.9709 54.3073 -93.1521 54.2031 -89.5787 53.7708C-76.5243 52.4896 -66.4208 49.6979 -57.9214 45.0938C-50.9003 41.3385 -43.5142 37.6979 -36.4932 34.2656C-32.7942 32.4427 -29.1011 30.625 -25.408 28.8021C-14.8137 23.4427 -6.68535 17.1198 -0.400562 9.40105C9.08049 -2.28125 17.4542 -11.8177 27.8032 -20.2865C31.6219 -23.3958 35.1953 -26.8229 38.7627 -30.0417C40.9833 -32.1823 43.3236 -34.3281 45.7837 -36.4687C48.4951 -38.8281 51.2065 -41.2917 54.5285 -43.1146C60.3225 -46.4375 67.2178 -48.474 75.4718 -49.3333C81.996 -49.974 86.9281 -49.0104 90.1303 -46.3333C93.3326 -43.7604 94.811 -39.5781 94.5596 -34.1146C94.3142 -29.1823 93.578 -24.25 92.8358 -20.0729C91.7285 -13.5365 93.2069 -7.3177 97.2711 -1.42187C106.758 12.2969 121.411 22.4792 140.63 28.8021C153.559 33.0885 167.846 34.5885 185.587 33.625C195.559 33.0885 202.089 29.3385 205.046 22.4792C206.525 18.9427 208.003 15.401 209.356 11.8646C210.834 8.11459 212.438 4.15105 214.036 0.291671C217.61 -7.96354 222.662 -14.7135 229.312 -20.0729C229.683 -19.4271 230.048 -18.7865 230.545 -18.1406C224.385 -13.1042 219.579 -6.67708 216.377 1.04167C214.779 4.79167 213.175 8.76042 211.696 12.5104C210.343 15.9375 208.865 19.5833 207.387 23.1198C204.184 30.7292 196.673 35.125 185.833 35.6615C167.727 36.625 153.194 35.0156 139.888 30.7292C120.058 24.1927 105.034 13.6875 95.3018 -0.354163C90.9923 -6.67708 89.2684 -13.4271 90.4955 -20.3958C91.2377 -24.5729 91.9739 -29.3958 92.2193 -34.2187C92.4707 -39.0417 91.2377 -42.5781 88.5262 -44.724C85.8148 -46.8646 81.5052 -47.724 75.8369 -47.1875C67.8343 -46.4375 61.5495 -44.5104 56.0069 -41.2917C52.9304 -39.5781 50.3446 -37.2187 47.7589 -34.8646C45.4186 -32.8281 43.0782 -30.5781 40.8576 -28.5417C37.2902 -25.2187 33.7169 -21.7865 29.8981 -18.6771C19.7946 -10.3177 11.4208 -0.885411 2.05949 10.6875C-4.34501 18.724 -12.8444 25.2656 -23.6842 30.7292C-27.3773 32.5521 -31.0703 34.375 -34.7694 36.1979C-41.7904 39.625 -49.1765 43.2708 -56.0778 47.0208C-64.8227 51.7344 -75.2913 54.6302 -88.7168 56.026C-92.4099 56.4531 -96.2287 56.5573 -99.9277 56.6667C-101.526 56.776 -103.25 56.776 -104.854 56.8802C-116.555 57.4167 -128.622 54.9531 -142.79 48.9479C-144.023 48.4167 -145.13 47.9844 -146.363 47.4479C-154.982 43.8073 -163.973 39.9479 -173.705 38.6615C-189.842 36.4115 -200.927 40.8073 -207.577 51.9531C-208.81 53.9896 -209.918 56.1302 -211.025 58.0625C-212.503 60.7396 -213.982 63.526 -215.706 66.2083C-220.141 73.2813 -227.407 77.7813 -234.428 82.2813L-235.29 82.3906ZM-129.119 -95.6302C-137.738 -88.5573 -147.345 -82.9844 -158.31 -78.5937C-155.719 -80.6302 -153.133 -82.5573 -150.427 -84.4844C-143.406 -88.0208 -136.876 -92.2031 -130.843 -97.1354L-130.717 -97.2396C-127.144 -99.276 -123.576 -101.312 -119.877 -103.245C-121.972 -101.526 -124.067 -99.8125 -126.162 -97.9896L-129.119 -95.6302ZM-6.43995 -132.5C-7.05645 -132.823 -7.67296 -133.146 -8.16377 -133.573C-7.54727 -133.573 -6.93076 -133.682 -6.31425 -133.682C-6.19454 -133.573 -5.94315 -133.469 -5.82344 -133.359C-5.20693 -133.036 -4.34502 -133.036 -3.35741 -133.469C-3.112 -133.573 -2.7409 -133.682 -2.49549 -133.896C-1.75927 -133.896 -1.01707 -133.896 -0.280851 -134C-1.01707 -133.359 -1.87898 -132.932 -2.86659 -132.609C-3.60281 -132.396 -4.21932 -132.182 -4.83583 -132.182C-5.45233 -132.073 -5.94315 -132.286 -6.43995 -132.5ZM-53.3664 -96.9167C-54.4737 -97.026 -55.581 -97.2396 -56.6943 -97.4531C-57.1851 -97.5625 -57.676 -97.6667 -58.2925 -97.6667C-58.4182 -97.6667 -58.5379 -97.6667 -58.6636 -97.6667C-58.7833 -97.6667 -58.909 -97.6667 -59.0347 -97.6667C-60.2617 -97.4531 -61.4947 -97.349 -62.602 -97.1354C-65.3135 -96.8125 -68.0249 -96.3854 -70.6106 -95.6302C-77.8771 -93.276 -84.1619 -88.9896 -90.1953 -82.0208C-94.9956 -76.3385 -100.909 -69.6979 -107.559 -63.4792C-111.013 -60.1562 -115.077 -57.2656 -119.016 -54.3698C-120.494 -53.2969 -121.972 -52.1198 -123.451 -51.0469C-131.459 -44.9375 -135.524 -36.901 -135.524 -27.7917C-135.398 -17.5 -134.165 -4.20833 -125.3 6.9375C-121.356 11.8646 -116.555 14.8698 -111.258 15.6198C-110.396 15.724 -109.654 15.8333 -108.792 15.8333C-104.357 15.8333 -99.9277 14.3333 -95.6121 11.4375C-90.5664 8.01042 -85.6343 4.36459 -80.7082 0.828129C-77.1408 -1.74479 -73.3221 -4.53125 -69.623 -7.10416C-64.5773 -10.6406 -60.6328 -13.1042 -56.814 -15.25C-42.0358 -23.1823 -34.524 -34.9687 -33.7818 -51.3698C-33.6621 -53.4062 -33.5364 -55.4427 -33.4107 -57.4792C-33.1653 -61.2292 -32.9199 -65.0885 -33.0456 -68.8385C-33.291 -75.8073 -34.524 -81.2708 -36.984 -86.0937C-39.9409 -92.4167 -45.4835 -96.0625 -53.3664 -96.9167ZM-34.524 -57.5833C-34.6437 -55.5469 -34.7694 -53.5104 -34.8891 -51.474C-35.5056 -35.5052 -42.8977 -23.9323 -57.3108 -16.2135C-61.2493 -14.1771 -65.1938 -11.6042 -70.2395 -8.0677C-73.9386 -5.49479 -77.7514 -2.70833 -81.3247 -0.135413C-86.1311 3.40105 -91.0572 7.04167 -96.1089 10.3646C-100.909 13.6875 -106.081 15.0833 -110.887 14.4375C-115.813 13.7969 -120.374 10.901 -124.067 6.29167C-132.686 -4.64062 -133.919 -17.7135 -134.045 -27.8958C-134.165 -36.7917 -130.101 -44.5104 -122.463 -50.4062C-120.985 -51.474 -119.506 -52.6562 -118.034 -53.724C-114.089 -56.6198 -110.025 -59.6198 -106.452 -62.9427C-99.802 -69.2656 -93.8883 -75.9115 -88.9622 -81.5937C-83.0486 -88.3437 -77.0152 -92.6302 -69.9941 -94.8802C-67.5341 -95.6302 -64.8227 -96.0625 -62.2369 -96.3854C-61.0039 -96.599 -59.7709 -96.7031 -58.5379 -96.9167H-58.2925C-57.8016 -96.8125 -57.3108 -96.7031 -56.814 -96.7031C-55.7067 -96.4896 -54.5994 -96.276 -53.3664 -96.1667C-45.8546 -95.3125 -40.8028 -91.9896 -37.8459 -85.9844C-35.5056 -81.2708 -34.2726 -75.9115 -34.0272 -69.1615C-33.9075 -65.0885 -34.2726 -61.2292 -34.524 -57.5833ZM-52.9953 -110.635C-50.6549 -111.281 -48.3146 -111.922 -45.9743 -112.458C-40.6771 -113.641 -37.4748 -116.745 -36.2478 -121.354C-35.6313 -123.823 -35.1345 -126.5 -34.8891 -129.823C-34.8891 -130.146 -34.8891 -130.573 -34.7694 -130.896C-34.3983 -131 -33.9075 -131 -33.5364 -131.109C-33.5364 -130.682 -33.5364 -130.25 -33.6621 -129.823C-33.9075 -126.5 -34.3983 -123.714 -35.0148 -121.25C-36.3675 -116.104 -39.9409 -112.891 -45.6092 -111.495C-47.9495 -110.958 -50.2898 -110.318 -52.5045 -109.672C-56.3232 -108.599 -60.2617 -107.531 -64.3259 -106.885C-77.8771 -104.526 -89.2076 -98.2031 -98.0782 -88.2396C-107.811 -77.1979 -119.632 -68.4115 -130.843 -60.1562C-136.385 -56.0833 -141.431 -51.3698 -145.376 -46.3333C-151.164 -38.9375 -150.056 -30.1458 -148.452 -23.1823C-146.112 -13 -143.161 -2.28125 -137.367 7.26042C-133.8 13.2604 -128.377 20.7604 -118.644 24.9427C-111.133 28.1563 -103.866 27.8385 -97.0906 23.9792C-90.6861 20.3333 -85.1435 16.1563 -80.8339 11.7604C-71.8437 2.65105 -61.0039 -3.78125 -51.6426 -8.8177C-46.4711 -11.6042 -41.1739 -14.9271 -36.1221 -18.4635C-30.3341 -22.5365 -27.2516 -28.4323 -26.1443 -37.0052C-25.6534 -41.2917 -25.408 -45.6875 -25.1626 -49.974C-24.9112 -54.474 -24.6658 -59.1927 -24.0493 -63.8021C-23.6842 -67.0156 -23.4388 -70.3385 -23.3131 -73.4479C-22.942 -79.8802 -22.6966 -86.5208 -20.2306 -92.9531C-18.2613 -98.3125 -14.5683 -102.063 -8.65459 -104.849C-1.38817 -108.172 6.24934 -111.922 12.6538 -117.068C18.1964 -121.464 22.3863 -126.5 25.4628 -132.5C25.5885 -132.823 25.7083 -133.146 25.8339 -133.469C26.3248 -133.469 26.6959 -133.469 27.067 -133.359C26.9413 -132.932 26.6959 -132.5 26.4505 -132.073C23.3679 -125.964 19.0583 -120.818 13.3901 -116.318C6.74016 -111.068 -0.897359 -107.318 -8.16377 -103.885C-13.8261 -101.312 -17.2797 -97.6667 -19.1233 -92.6302C-21.4636 -86.3073 -21.8347 -79.7708 -22.0801 -73.3385C-22.2058 -70.125 -22.4512 -66.8021 -22.8223 -63.5885C-23.4388 -59.0833 -23.6842 -54.3698 -23.9296 -49.8698C-24.175 -45.5781 -24.4204 -41.1875 -24.9112 -36.901C-26.0246 -28.0052 -29.3465 -21.8958 -35.2602 -17.6094C-40.312 -13.9635 -45.6092 -10.75 -50.9003 -7.85416C-60.2617 -2.8177 -70.9818 3.50521 -79.8463 12.5104C-84.2816 17.0104 -89.9498 21.2969 -96.4741 24.9427C-100.419 27.1927 -104.483 28.2656 -108.673 28.2656C-112.12 28.2656 -115.694 27.5156 -119.261 26.0156C-129.364 21.7292 -134.907 14.0104 -138.6 7.90105C-144.388 -1.85416 -147.471 -12.6771 -149.811 -22.8594C-151.409 -29.9323 -152.516 -39.151 -146.483 -46.7604C-142.545 -51.9062 -137.367 -56.7292 -131.705 -60.8021C-120.494 -68.9479 -108.792 -77.7344 -99.1855 -88.6667C-90.1953 -98.849 -78.6193 -105.281 -64.697 -107.635C-60.7585 -108.495 -56.814 -109.568 -52.9953 -110.635ZM-62.8534 -83.7344H-62.9731C-63.0988 -83.7344 -63.2185 -83.7344 -63.2185 -83.7344C-72.3345 -82.5573 -77.3863 -76.875 -82.1866 -70.6615C-87.2384 -64.125 -93.2718 -57.7969 -101.771 -50.1875L-102.142 -49.8698C-108.176 -44.5104 -114.335 -38.9375 -117.537 -31.5417C-121.482 -22.3229 -121.236 -13.8542 -116.921 -6.35416C-114.461 -2.28125 -111.623 0.182295 -108.176 1.04167C-107.314 1.25521 -106.452 1.36459 -105.47 1.36459C-102.633 1.36459 -99.3112 0.401046 -95.8576 -1.53125C-88.226 -5.70833 -80.8339 -10.6406 -73.6872 -15.3542C-69.8684 -17.9271 -65.8043 -20.5 -61.8658 -23.0729C-53.3664 -28.4323 -47.9495 -35.8281 -45.6092 -45.151C-43.5142 -53.8333 -43.2688 -62.4062 -45.2381 -70.5521C-47.2073 -78.6979 -54.8448 -84.4844 -62.8534 -83.7344ZM-46.9619 -45.3646C-49.1765 -36.3646 -54.4737 -29.0729 -62.7277 -23.9323C-66.6662 -21.4635 -70.7363 -18.7865 -74.5491 -16.2135C-81.6958 -11.5 -89.0879 -6.67708 -96.5998 -2.38541C-100.909 -0.031246 -104.728 0.828129 -107.93 0.078129C-111.013 -0.671871 -113.718 -2.92187 -115.939 -6.78125C-120.123 -13.9635 -120.374 -22.2135 -116.555 -31.1094C-113.473 -38.2917 -107.314 -43.7604 -101.406 -49.1198L-101.035 -49.4375C-92.5356 -57.0469 -86.3765 -63.3698 -81.3247 -70.0156C-76.644 -76.0208 -71.8437 -81.4844 -63.0988 -82.6667H-62.9731C-62.8534 -82.6667 -62.8534 -82.6667 -62.7277 -82.6667C-55.4613 -83.4167 -48.3146 -77.9479 -46.5908 -70.3385C-44.7472 -62.3021 -44.867 -53.9427 -46.9619 -45.3646ZM-190.704 -41.8281C-191.566 -43.5469 -192.182 -44.8281 -192.428 -46.0104C-192.057 -46.4375 -191.686 -46.8646 -191.321 -47.2969C-191.321 -46.0104 -190.704 -44.5104 -189.591 -42.2604C-188.854 -40.8646 -188.118 -39.3646 -187.376 -37.9687C-184.79 -33.1458 -182.205 -28.2187 -179.864 -23.1823C-178.015 -19 -176.291 -14.7135 -174.693 -10.6406C-172.718 -5.81771 -170.748 -0.885412 -168.534 3.82813C-166.558 8.11459 -163.853 12.0833 -160.651 15.2969C-152.768 23.2292 -141.928 33.1927 -127.515 39.625C-109.78 47.5573 -85.3889 44.3438 -70.7363 32.0156C-68.5157 30.0885 -66.3011 28.0521 -64.2061 26.0156C-59.5255 21.5104 -54.7191 16.7969 -48.3146 13.7969C-44.867 12.1875 -41.2936 10.901 -37.7262 9.61459C-34.2726 8.32813 -30.7052 7.04167 -27.3773 5.54167C-12.2279 -1.63541 -3.60281 -13.5365 -1.87898 -30.0417C-1.26248 -35.401 -2.00468 -40.7552 -2.62119 -46.0104C-2.99229 -48.901 -3.35741 -51.9062 -3.4831 -54.7969C-4.21932 -69.2656 1.19757 -79.8802 13.1447 -87.0573C20.1657 -91.3437 27.1867 -95.6302 34.082 -99.9219C37.781 -102.172 41.4741 -104.526 45.2929 -106.781L45.9094 -107.208C46.897 -107.849 47.8786 -108.495 48.9859 -108.818C56.6234 -111.172 61.4298 -110.958 64.8775 -102.708C65.7394 -100.672 66.6013 -98.6354 67.3435 -96.599C68.5705 -93.599 69.8035 -90.5937 71.1623 -87.5937C73.0058 -83.3073 76.9502 -80.3073 83.2291 -78.5937C86.8024 -77.625 90.3758 -76.6615 93.9431 -75.6979L97.5165 -74.7344C110.451 -71.1979 118.58 -63.6927 121.907 -52.224C123.386 -46.974 123.14 -41.2917 121.165 -36.0417C120.058 -33.0417 119.07 -30.0417 118.089 -27.1458C113.779 -14.1771 116.73 -3.35416 127.205 5.75521C133.483 11.224 142.228 17.7604 154.175 20.3333C163.782 22.3698 174.005 23.5469 184.6 19.3698C190.759 16.9063 194.823 12.401 197.289 5.54167C202.461 -8.92708 211.205 -21.25 220.812 -32.3958C221.057 -32.0781 221.303 -31.7552 221.548 -31.4323C212.067 -20.3958 203.568 -8.28125 198.396 5.86459C195.811 12.9375 191.495 17.7604 184.971 20.3333C174.131 24.7292 163.537 23.4427 153.804 21.4063C141.612 18.8333 132.747 12.1875 126.217 6.61459C115.377 -2.81771 112.301 -13.8542 116.73 -27.3594C117.718 -30.2552 118.705 -33.2552 119.813 -36.2552C121.782 -41.401 122.027 -46.7604 120.549 -51.7969C117.346 -62.8385 109.464 -70.125 97.0257 -73.5521L93.4523 -74.5208C89.879 -75.4844 86.3116 -76.4479 82.7382 -77.4115C76.0883 -79.2344 71.8985 -82.3437 69.9292 -87.0573C68.5705 -90.0573 67.3435 -93.1667 66.1105 -96.1667C65.2486 -98.2031 64.5064 -100.24 63.6444 -102.172C60.8133 -108.922 57.4854 -110.208 49.357 -107.635C48.3754 -107.318 47.3878 -106.781 46.5259 -106.135L45.9094 -105.708C42.2163 -103.458 38.5173 -101.099 34.6985 -98.849C27.8032 -94.5625 20.7822 -90.276 13.7612 -85.9844C2.18518 -79.0208 -3.112 -68.7292 -2.25009 -54.6927C-2.12439 -51.7969 -1.75927 -48.7969 -1.38817 -45.901C-0.771663 -40.651 -0.0354448 -35.1823 -0.651953 -29.7187C-2.49549 -12.8906 -11.2403 -0.671871 -26.8865 6.72396C-30.2084 8.32813 -33.7818 9.61459 -37.2294 10.901C-40.6771 12.1875 -44.3761 13.474 -47.6981 15.0833C-53.8572 18.0833 -58.6636 22.6927 -63.2185 27.0885C-65.3135 29.1198 -67.5341 31.2656 -69.7487 33.1927C-79.2298 41.125 -92.781 45.4115 -105.961 45.4115C-113.599 45.4115 -121.236 43.9115 -127.886 41.0208C-142.545 34.4792 -153.504 24.4063 -161.387 16.3698C-164.715 13.0469 -167.42 8.97396 -169.515 4.57813C-171.736 -0.244787 -173.705 -5.17708 -175.674 -10C-177.279 -14.0729 -179.002 -18.3594 -180.846 -22.5365C-183.067 -27.5729 -185.778 -32.5052 -188.238 -37.2187C-189.226 -39.0417 -189.962 -40.4375 -190.704 -41.8281ZM-227.281 45.9479C-230.855 53.2396 -235.536 59.4531 -240.958 64.7031C-240.833 63.526 -240.707 62.2396 -240.587 61.0625C-236.278 56.4531 -232.579 51.2031 -229.622 45.0938C-224.205 34.1615 -216.939 27.0885 -206.835 22.7969C-200.311 20.0104 -193.535 19.3698 -186.388 20.8698C-173.214 23.5469 -161.632 29.5521 -150.302 35.2292C-143.035 38.875 -134.662 43.1615 -125.917 46.3802C-112.982 51.0938 -99.6763 49.9167 -88.3457 48.0938C-73.3221 45.7344 -61.4947 38.125 -51.1517 30.4063C-45.4835 26.1198 -38.4624 22.4792 -29.963 19.3698C-19.8655 15.6198 -11.6114 9.82813 -5.69774 2.21875C0.581064 -5.81771 7.72777 -14.9271 12.2827 -25C14.7488 -30.3594 14.3777 -35.6146 14.0066 -41.1875C13.8869 -43.974 13.0249 -46.651 12.0373 -49.4375C11.5465 -51.0469 11.0497 -52.6562 10.6846 -54.2604C9.20619 -60.3698 12.163 -67.3385 18.1964 -72.5885C24.1101 -77.625 31.6219 -79.8802 38.2718 -78.5937C42.9525 -77.7344 47.1424 -74.8385 49.9735 -72.5885C57.8565 -66.1562 67.0921 -65.0885 75.9626 -64.7656C81.8763 -64.5521 87.4189 -63.9062 92.2193 -62.8385C105.154 -59.8333 111.313 -50.6198 108.727 -38.0781L108.482 -36.6875C107.123 -30.3594 105.896 -23.7187 104.783 -17.1771C103.676 -10 106.387 -3.24479 113.037 3.61459C124.122 14.974 135.824 21.9427 148.878 25.0521C162.429 28.2656 172.778 28.9063 182.63 27.3021C192.112 25.6927 198.396 20.3333 202.335 10.2604L202.58 9.61459C205.663 1.57813 208.985 -6.67708 214.408 -14.0729C217.484 -18.4635 221.183 -22.3229 225.122 -25.8594C225.493 -25.2187 225.984 -24.5729 226.355 -23.9323C222.662 -20.6094 219.334 -16.9635 216.377 -12.8906C211.08 -5.60416 207.877 2.4375 204.801 10.3646L204.555 11.0104C200.366 21.6198 193.345 27.7292 182.996 29.4427C172.778 31.1563 162.058 30.4063 148.142 27.1927C134.591 23.9792 122.524 16.7969 111.068 5.11459C104.047 -2.06771 101.09 -9.67708 102.197 -17.3906C103.304 -23.9323 104.537 -30.5781 105.896 -36.901L106.142 -38.2917C108.482 -49.651 102.939 -58.0156 91.3574 -60.5833C86.6767 -61.6562 81.3855 -62.3021 75.5915 -62.5156C66.727 -62.8385 56.378 -64.0156 48.0043 -70.875C44.4309 -73.7708 40.7379 -75.6979 37.5356 -76.3385C31.6219 -77.5208 24.972 -75.4844 19.6749 -70.875C14.1323 -66.1562 11.5465 -59.8333 12.7736 -54.474C13.1447 -52.8698 13.6415 -51.2604 14.1323 -49.7604C14.9942 -46.974 15.9818 -44.0781 16.1015 -41.0781C16.4726 -35.5052 16.8437 -29.7187 14.1323 -23.9323C9.45159 -13.6406 2.30489 -4.42187 -4.09961 3.71875C-10.3784 11.651 -18.8778 17.6563 -29.4722 21.6198C-37.8459 24.7292 -44.4958 28.1563 -50.0384 32.3385C-60.7585 40.2708 -72.8253 48.0938 -88.4714 50.5573C-100.173 52.3802 -113.964 53.6667 -127.389 48.7344C-136.26 45.5208 -144.759 41.2344 -152.026 37.4844C-163.111 31.8021 -174.567 25.9063 -187.376 23.3333C-194.026 21.9427 -200.185 22.5833 -206.224 25.1563C-215.334 28.6927 -222.11 35.4479 -227.281 45.9479ZM90.8666 -103.349C90.6212 -109.031 90.8666 -114.068 91.8542 -118.568C92.0996 -119.531 92.345 -120.604 92.5904 -121.568C92.9615 -121.464 93.3326 -121.354 93.8234 -121.25C93.578 -120.281 93.3326 -119.318 93.0812 -118.354C92.2193 -113.854 91.8542 -109.031 92.0996 -103.349C92.345 -97.776 95.9183 -93.4896 102.323 -91.026C124.739 -82.4479 132.747 -64.5521 137.176 -49.8698C139.026 -43.8646 136.195 -37.9687 133.358 -32.1823C133.112 -31.6458 132.867 -31.0052 132.496 -30.4687C130.155 -25.6458 128.557 -21.0365 127.695 -16.6406C126.588 -11.1771 128.432 -5.60416 133.358 -0.135413C142.354 9.9375 153.194 14.8698 166.619 14.8698H166.739C176.717 14.8698 183.738 11.1146 188.293 3.50521C189.771 1.04167 191.004 -1.63541 192.237 -4.3177C193.219 -6.45833 194.332 -8.71354 195.439 -10.8542C200.366 -19.8594 205.537 -29.1823 211.08 -38.401C211.822 -39.6875 212.438 -40.974 213.055 -42.151C213.3 -41.8281 213.665 -41.401 213.917 -41.0781C213.42 -40.0052 212.803 -38.9375 212.193 -37.8646C206.65 -28.6458 201.599 -19.3229 196.547 -10.3177C195.439 -8.17708 194.332 -6.03125 193.345 -3.89062C192.112 -1.31771 190.885 1.36459 189.28 3.9375C184.6 11.8646 176.962 15.9375 166.619 15.9375H166.494C152.823 15.8333 141.366 10.6875 132.25 0.505212C127.205 -5.17708 125.229 -11.1771 126.343 -16.8594C127.324 -21.25 128.928 -26.0729 131.269 -30.8958C131.514 -31.4323 131.76 -32.0781 132.131 -32.6146C134.836 -38.1875 137.548 -43.8646 135.824 -49.5469C127.45 -76.9844 113.163 -85.5573 101.706 -89.9531C94.9307 -92.7396 91.112 -97.349 90.8666 -103.349Z" fill="#FFCE6F"/>
</g>
</g>
</svg>
