<svg xmlns="http://www.w3.org/2000/svg" viewBox="0 0 170.08 216.79"><defs><style>.cls-1{fill:#32422e;}</style></defs><title>Fichier 12</title><g id="Calque_2" data-name="Calque 2"><g id="Calque_1-2" data-name="Calque 1"><path class="cls-1" d="M163.87,99.79c-2.58-6.65-5.22-11-9.14-17.5-6-10-11.65-20.18-17.55-30.22-4.57-7.79-7-11.62-8.3-13.65C121.12,26.5,104.44.84,85.78,0,69.23-.71,56.07,18.3,38,44.42c-3,4.29-9.69,16.51-23.5,40.74C7.28,97.81,4.74,102.33,2.74,109.45a83.35,83.35,0,0,0-.52,40.48c7.43,31.81,31.06,48.73,35,51.45A84.59,84.59,0,0,0,137.75,199c1.75-1.37,29.49-23.77,32.13-60.85A90.75,90.75,0,0,0,163.87,99.79Zm-8.16,4.55c4.79,3.21,4.24,10.53,4.19,11.17-.72,8.1-8.66,15.36-16.33,16-5.84.52-7.62-3.12-15.9-4.32a34.42,34.42,0,0,0-15.77,1.53,70.26,70.26,0,0,0,13-9.21c3.85-3.46,6.14-6.33,12-10.88,4.12-3.2,6.32-4.37,8.92-5C147.94,103.11,152.27,102,155.71,104.34Zm-79.62,1.25A28.26,28.26,0,0,0,83,120.29a66.16,66.16,0,0,1-9.5-3.36c-5.82-2.58-16-7.11-22.55-16.78-2.31-3.41-11.8-18.75-4.35-32.57C52.44,56.73,64.74,54.21,66,54a21,21,0,0,1,12.3.68c.8.32,8.8,3.68,11,11.89a18.14,18.14,0,0,1-.73,10.89C85.63,85.8,79.83,85.73,77,94A23.93,23.93,0,0,0,76.09,105.59ZM60.83,123.18c1.63-.68,9.63-3.78,16.32,0,4.92,2.78,6.59,7.85,8.1,12.42,3.38,10.25,3.29,25.17-5.9,35a16.72,16.72,0,0,1-3.87,3.35c-13.05,7.89-33.52-6.85-35.29-8.15-9-6.62-13.89-14.78-16.62-19.41A73.36,73.36,0,0,1,18,134.62a35.16,35.16,0,0,0,16.33,2.66,34.32,34.32,0,0,0,12-3.21C54.39,130.12,54,126.05,60.83,123.18Zm18.24-19.71c0-2.12-.08-8.2,4.41-11.83a11.74,11.74,0,0,1,7.92-2.43,11.54,11.54,0,0,1,8.36,5.09c1.17,1.75,1,2.58,1.95,5a24.18,24.18,0,0,0,6.14,8.65c5.66,5.34,12.87,6.32,15.63,6.56a23.66,23.66,0,0,1-12.81,10.75c-9.19,3.1-17-.92-19.39-2.28C84.63,119.17,79.16,111.7,79.07,103.47ZM89.57,131c.61-.75,1.79-1.73,5.17-2.2,5.59-.77,8.53,1.08,14.23,2.38,9.68,2.19,12.31-.62,21.07,2.5a37.73,37.73,0,0,1,6.28,2.94c-10.24-1.51-17,.31-21.35,2.37-2.66,1.25-5.35,3-10.33,4.32-4.83,1.26-9.12,2.38-12.42,0C88.45,140.56,87.05,134.07,89.57,131ZM129,50C142.9,70.84,144.12,74.62,144.65,77c.57,2.66,3.94,18.2-6,27.59-4.85,4.59-13.74,8.53-22.39,5-9-3.64-14-13.78-12.35-20.93,1.14-4.9,4.6-4.73,10.25-13.19a48.05,48.05,0,0,0,7.12-15.91A43.12,43.12,0,0,0,120.09,37C122.24,40,125.37,44.48,129,50ZM71.25,13.51A21.42,21.42,0,0,1,84.31,6.09c10.37-1.43,18.31,6.23,21.08,8.9,10.74,10.35,13.78,26.87,10.55,40.39-4.5,18.93-20.32,28-21.11,28.41-1.43.77-3,1.51-3,1.51-1.41.67-2.56,1.15-3.18,1.39A39.87,39.87,0,0,0,92,79.18c.85-2.58,2.32-7.07,2-11.82-.68-8.8-7.41-14.82-8.84-16.1-6.55-5.87-11.3-4.49-15.48-10.83a20.24,20.24,0,0,1-3-7.9C66.27,30.33,64.93,21,71.25,13.51ZM50.15,39.22c3.84-5.53,7.7-10.69,11.52-15.49a31.32,31.32,0,0,0,2,15.18A27.07,27.07,0,0,0,72,50.1a34.22,34.22,0,0,0-12,1.47c-3.51,1.09-6.61,2.71-17.26,10.57-3.1,2.28-7.14,5.32-11.83,9A293.55,293.55,0,0,1,50.15,39.22ZM12,103.44c3.35-12.13,10.9-19.83,15.07-24A67.67,67.67,0,0,1,40.18,69.25a47.16,47.16,0,0,0-1,14.09A41.15,41.15,0,0,0,44.79,102c4.77,7.79,9,7.75,9.39,12.25.64,6.64-7.78,13.67-15.38,16.25-8.79,3-21.54,1.73-26.81-6.45C8,117.89,10.06,110.42,12,103.44Zm88.82,101.65c-7.25,6.51-17.66,5.17-26,4-19-2.75-32.4-12.71-37.54-16.89-3.17-2.57-27.54-23-30.27-56.37a75.32,75.32,0,0,1,.42-16.12c1.53,8.59,8.12,39.75,32.65,52.75,18.77,9.94,34.53,8.79,34.53,8.79,11.21-.82,22.16-5.44,29.1.62a12.09,12.09,0,0,1,3.44,5C109.57,193.45,105.1,201.23,100.81,205.09ZM135.76,189c-5.65,7.23-12.73,10.84-16.32,12.66A55.79,55.79,0,0,1,103,207c6.27-6.83,12-15.34,9.73-22.6-2.53-8-12.73-7.75-15.17-15.91-2.59-8.67,5.17-21.54,16.22-25.32,8.84-3,17,.8,19.05,1.67a21.68,21.68,0,0,1,8.69,6.91C149,162.25,143.31,179.3,135.76,189Zm26.68-44.25c-3.23,17.93-12.55,31-13.6,30.55-.74-.31,3.61-7.46,1.72-16.87a24.45,24.45,0,0,0-5.73-11.49,23.2,23.2,0,0,0-8.65-5.86,42.75,42.75,0,0,0,11.62-5.44,43.77,43.77,0,0,0,14.68-16.89A75.06,75.06,0,0,1,162.44,144.72Z"/></g></g></svg>