<svg xmlns="http://www.w3.org/2000/svg" viewBox="0 0 190.64 243"><defs><style>.cls-1{fill:#ffecd3;}</style></defs><title>Fichier 14</title><g id="Calque_2" data-name="Calque 2"><g id="Calque_1-2" data-name="Calque 1"><path class="cls-1" d="M183.68,111.85c-2.89-7.45-5.85-12.3-10.24-19.61-6.72-11.19-13.06-22.62-19.67-33.88-5.13-8.73-7.83-13-9.31-15.3C135.77,29.7,117.07.94,96.15,0,77.6-.8,62.85,20.52,42.59,49.79,39.26,54.6,31.72,68.3,16.24,95.46,8.16,109.64,5.31,114.7,3.07,122.69a93.61,93.61,0,0,0-.59,45.37c8.33,35.66,34.83,54.62,39.23,57.67A96.28,96.28,0,0,0,95.57,243c7.94.05,34.34-.76,58.84-19.91,2-1.53,33-26.64,36-68.21A101.6,101.6,0,0,0,183.68,111.85ZM174.54,117c5.36,3.59,4.75,11.8,4.69,12.51-.8,9.09-9.7,17.22-18.3,18-6.55.58-8.55-3.5-17.83-4.85a38.67,38.67,0,0,0-17.67,1.72A78.55,78.55,0,0,0,140,134c4.32-3.89,6.89-7.1,13.45-12.2,4.63-3.59,7.09-4.9,10-5.63C165.83,115.58,170.68,114.37,174.54,117Zm-89.25,1.4A31.64,31.64,0,0,0,93,134.83a74,74,0,0,1-10.65-3.77c-6.52-2.89-17.94-8-25.28-18.81-2.58-3.82-13.21-21-4.87-36.5,6.55-12.16,20.33-15,21.76-15.26,3-.58,8.12-1.52,13.79.76.89.35,9.86,4.12,12.31,13.32a20.46,20.46,0,0,1-.82,12.21c-3.28,9.39-9.78,9.32-13,18.53A26.83,26.83,0,0,0,85.29,118.36ZM68.18,138.07c1.83-.76,10.8-4.24,18.3,0,5.51,3.12,7.38,8.8,9.07,13.92,3.8,11.5,3.7,28.21-6.6,39.18a19.47,19.47,0,0,1-4.34,3.76C70,203.77,47,187.25,45.05,185.79,35,178.37,29.48,169.23,26.42,164a83.61,83.61,0,0,1-6.25-13.14,39.33,39.33,0,0,0,18.3,3,38.44,38.44,0,0,0,13.45-3.59C61,145.86,60.47,141.29,68.18,138.07ZM88.63,116c0-2.37-.1-9.19,4.94-13.26a13.15,13.15,0,0,1,8.89-2.72,12.9,12.9,0,0,1,9.36,5.7c1.32,2,1.09,2.89,2.19,5.63a27.12,27.12,0,0,0,6.88,9.7c6.34,6,14.43,7.08,17.52,7.35a26.54,26.54,0,0,1-14.36,12.05c-10.31,3.47-19.09-1-21.74-2.56C94.87,133.58,88.73,125.2,88.63,116Zm11.77,30.81c.68-.83,2-1.94,5.79-2.46,6.27-.86,9.57,1.21,16,2.66,10.86,2.46,13.8-.69,23.62,2.81a42.05,42.05,0,0,1,7,3.29c-11.48-1.69-19.05.36-23.93,2.66-3,1.4-6,3.39-11.57,4.84-5.42,1.41-10.23,2.66-13.93,0C99.15,157.56,97.58,150.28,100.4,146.79ZM144.62,56c15.56,23.39,16.93,27.63,17.52,30.34.64,3,4.41,20.41-6.68,30.92-5.44,5.15-15.4,9.57-25.1,5.63-10-4.07-15.72-15.44-13.85-23.46,1.29-5.49,5.17-5.29,11.5-14.78a53.62,53.62,0,0,0,8-17.83,48.3,48.3,0,0,0-1.37-25.36C137,44.86,140.52,49.86,144.62,56ZM79.86,15.14A24.1,24.1,0,0,1,94.5,6.82c11.62-1.59,20.53,7,23.63,10,12,11.61,15.44,30.12,11.83,45.27-5.05,21.23-22.78,31.37-23.67,31.85-1.6.86-3.36,1.69-3.36,1.69-1.58.76-2.87,1.29-3.56,1.56a45.62,45.62,0,0,0,3.76-8.42c1-2.89,2.59-7.93,2.18-13.25-.76-9.86-8.3-16.61-9.91-18-7.34-6.58-12.67-5-17.35-12.13a22.81,22.81,0,0,1-3.33-8.86C74.28,34,72.78,23.55,79.86,15.14ZM56.22,44c4.3-6.2,8.62-12,12.9-17.36a35.34,35.34,0,0,0,2.23,17,30.23,30.23,0,0,0,9.39,12.55,38.63,38.63,0,0,0-13.5,1.64c-3.93,1.23-7.4,3-19.35,11.85-3.47,2.56-8,6-13.25,10.09A330.2,330.2,0,0,1,56.22,44Zm-42.77,72c3.74-13.59,12.2-22.23,16.88-26.9A75.61,75.61,0,0,1,45,77.63a52.68,52.68,0,0,0-1.1,15.79c.34,4.16,1.12,12.57,6.26,21,5.35,8.73,10,8.68,10.53,13.73.72,7.44-8.72,15.32-17.23,18.21-9.86,3.35-24.16,1.94-30-7.23C9,132.14,11.28,123.78,13.45,115.94ZM113,229.88c-8.12,7.31-19.79,5.8-29.09,4.46-21.33-3.07-36.32-14.24-42.08-18.92C38.26,212.53,11,189.63,7.89,152.23a85,85,0,0,1,.47-18.07c1.72,9.62,9.11,44.56,36.6,59.13,21,11.14,38.71,9.85,38.71,9.85,12.56-.92,24.84-6.1,32.61.7a13.47,13.47,0,0,1,3.86,5.55C122.81,216.84,117.81,225.55,113,229.88Zm39.19-18.06c-6.34,8.11-14.28,12.14-18.3,14.19a62.42,62.42,0,0,1-18.42,6c7-7.65,13.48-17.2,10.9-25.33-2.84-9-14.27-8.69-17-17.83-2.91-9.73,5.79-24.15,18.18-28.39,9.91-3.39,19.07.9,21.35,1.88a24.26,24.26,0,0,1,9.74,7.74C167,181.87,160.64,201,152.18,211.82Zm29.9-49.61C178.46,182.32,168,197,166.84,196.46c-.84-.35,4-8.36,1.92-18.91a27.45,27.45,0,0,0-6.42-12.88,26.15,26.15,0,0,0-9.7-6.57,47.52,47.52,0,0,0,13-6.1,49,49,0,0,0,16.47-18.93A84.15,84.15,0,0,1,182.08,162.21Z"/></g></g></svg>