<svg xmlns="http://www.w3.org/2000/svg" viewBox="0 0 266.66 50.53"><defs><style>.cls-1{fill:#32422e;}</style></defs><title>Fichier 16</title><g id="Calque_2" data-name="Calque 2"><g id="Calque_1-2" data-name="Calque 1"><path class="cls-1" d="M51.11,11.91a10.05,10.05,0,0,1,1.34-5.26C55.62,1.33,63.2.92,67.73.66A35.68,35.68,0,0,1,84.15,3.78l-1.27,7.55c-.25-1-2-3.07-4.7-4.9A17.62,17.62,0,0,0,67.73,3c-2.49,0-7,.15-8.87,3.37a7.18,7.18,0,0,0,.65,7.87,4.25,4.25,0,0,0,.71.62c3.89,2.81,10.38,3.65,10.38,3.65,6.71.87,14.23,5.31,17.17,11.17a14.34,14.34,0,0,1,1.44,6.56,12.24,12.24,0,0,1-2,7.14c-4.44,6.4-15,6.36-20.08,6.24A42.77,42.77,0,0,1,52,46.46l2.86-10.72a14,14,0,0,0,14,11c6.18,0,11.55-2.13,11.55-9.48S69.06,25.81,63.54,24C55.23,21.11,51.11,17.5,51.11,11.91Z"/><path class="cls-1" d="M191.09,25.23a25.67,25.67,0,0,1-51.33,0,25.67,25.67,0,0,1,51.33,0Zm-8.75-.52c0-12.57-7.58-22.8-16.92-22.8s-16.91,10.23-16.91,22.8,7.57,22.8,16.91,22.8S182.34,37.29,182.34,24.71Z"/><path class="cls-1" d="M241.73,7V19.56h3.38c11.62,0,13-2.57,13-2.57v7s-1.4-2.58-13-2.58h-3.38V43.47a10.91,10.91,0,0,0,.66,4h6.25c16,0,17.95-7.35,17.95-7.35l.07,9.48H230.4s2.65-.36,2.65-6.25V6.84C233.05,1,230.4.59,230.4.59h36.26l-.07,9.49s-1.91-7.29-17.95-7.29h-6.25A11.24,11.24,0,0,0,241.73,7Z"/><path class="cls-1" d="M115.27,24.59c-.52-1-5.46-10.92-6.45-17-.65-4,.52-5.6.91-6a4.63,4.63,0,0,1,1.1-.94H94.06S96.78,1,96.34,7l-2.5,36.48c-.37,5.81-3.16,6.17-3.16,6.17H100s-2.72-.36-2.28-6.25l2.5-36.55a18.88,18.88,0,0,1,.29-2.21c.65,1.51,1.31,3,2,4.54,3.26,7.22,6.74,14,10.32,20.23Z"/><path class="cls-1" d="M125.19,49.85h14.13s-2.73-.37-3.17-6.18l-2.5-36.48c-.44-6,2.28-6.4,2.28-6.4H119.46a5.32,5.32,0,0,1,1.9,1.92,6.63,6.63,0,0,1,.29,4.86c-1.31,5.51-8,14.43-8.64,15.23l.56,2a103.84,103.84,0,0,0,8.69-14.15q1.17-2.29,2.16-4.51c.12-.28.23-.56.33-.83.08.52.15,1.1.22,1.77l2.5,36.55C127.92,49.48,125.19,49.85,125.19,49.85Z"/><path class="cls-1" d="M114.1,21.94l-.37-.73h0l-3.16,4.85c-2.14,3.24-3.61,6-3.61,8.39a6.35,6.35,0,0,0,2.87,5.37,5.48,5.48,0,0,0,3.53,1.1,6.42,6.42,0,0,0,6.4-6.47C119.76,31.06,117.19,27.39,114.1,21.94Zm-2.65,17.14c-1.76-.14-2.88-1.88-3.24-3.16a4.89,4.89,0,0,1-.06-2.14,14,14,0,0,1,3.38-6.62c.45.77.81,1.42,1.06,1.9a17.08,17.08,0,0,1,2.22,6c0,.14,0,.23,0,.32a3.8,3.8,0,0,1-1.29,3.05A3.17,3.17,0,0,1,111.45,39.08Z"/><path class="cls-1" d="M190.6,11.58a10.12,10.12,0,0,1,1.34-5.26C195.11,1,202.69.58,207.23.33a35.54,35.54,0,0,1,16.41,3.12L222.38,11c-.26-1-2-3.07-4.71-4.9a17.68,17.68,0,0,0-10.44-3.41c-2.5.06-7,.16-8.87,3.38a7.16,7.16,0,0,0,.64,7.86,4.44,4.44,0,0,0,.71.63c3.89,2.81,10.38,3.65,10.38,3.65,6.71.87,14.23,5.31,17.17,11.17a14.34,14.34,0,0,1,1.44,6.56,12.16,12.16,0,0,1-2,7.14c-4.44,6.4-15.05,6.36-20.08,6.24a43,43,0,0,1-15.15-3.18l2.86-10.72a14,14,0,0,0,14.05,11c6.18,0,11.55-2.13,11.55-9.49S208.55,25.48,203,23.64C194.72,20.77,190.6,17.17,190.6,11.58Z"/><path class="cls-1" d="M51.33,25.23a25.52,25.52,0,0,1-25.66,25.3A25.47,25.47,0,0,1,0,25.23,25.46,25.46,0,0,1,25.67,0,25.5,25.5,0,0,1,51.33,25.23Zm-8.75-.52c0-12.57-7.57-22.8-16.91-22.8S8.75,12.14,8.75,24.71s7.58,22.8,16.92,22.8S42.58,37.29,42.58,24.71Z"/><path class="cls-1" d="M36.19,43.3c-.11.14-.21.29-.32.44l-.11,0a12.8,12.8,0,0,0,1.91-7.41c-.27-6.93-5.46-11.87-11.28-10.75a9.27,9.27,0,0,0-1.7.52c-4.32,1.86-9.34-.27-11.67-4.95a13.36,13.36,0,0,1,1.2-13.78L14.46,7l.09.06a12.86,12.86,0,0,0-1.81,7.25C13,21.27,18.2,26.21,24,25.09a9.27,9.27,0,0,0,1.7-.52c4.32-1.86,9.34.27,11.67,4.95A13.36,13.36,0,0,1,36.19,43.3Z"/></g></g></svg>